<svg xmlns="http://www.w3.org/2000/svg" width="39.999" height="39.999" viewBox="0 0 39.999 39.999">
  <g id="add-vehicle" transform="translate(-10 -10)">
    <path id="Path_35861" data-name="Path 35861" d="M42.408,50.279,40,46.666l-3.333-8.749a40.617,40.617,0,0,0-20,0L14.6,43.333H10v2.5l3.333.833-2.408,3.613A6.475,6.475,0,0,0,10,53.332V60H43.333V53.332A6.481,6.481,0,0,0,42.408,50.279ZM40,56.666H13.333v-3.99l3.492-5.237a54.651,54.651,0,0,0,19.681,0L40,52.675Z" transform="translate(0 -13.334)" fill="#0d0d0d"/>
    <path id="Path_35862" data-name="Path 35862" d="M20.159,58.208l-3.492,5.237v3.99H43.333v-3.99l-3.493-5.239A54.674,54.674,0,0,1,20.159,58.208Z" transform="translate(-3.334 -24.104)" fill="#cfd8db"/>
    <path id="Path_35863" data-name="Path 35863" d="M41.041,60.009l-1.2-1.8a54.662,54.662,0,0,1-19.681,0l-3.492,5.237v3.99h2V64.051L21.1,60.4a56.307,56.307,0,0,0,19.938-.386Z" transform="translate(-3.334 -24.104)" fill="#ecf9ff"/>
    <path id="Path_35864" data-name="Path 35864" d="M13.841,50l-1.083,2.844,1.954.488L15.982,50Z" transform="translate(-1.379 -20)" fill="#263238"/>
    <path id="Path_35865" data-name="Path 35865" d="M34.483,48.334a50.781,50.781,0,0,1-8.832-.765l1.325-3.476a37.624,37.624,0,0,1,15.033,0l1.324,3.476A50.934,50.934,0,0,1,34.483,48.334Z" transform="translate(-7.826 -16.667)" fill="#fff"/>
    <g id="Group_15320" data-name="Group 15320" transform="translate(10 38.332)">
      <path id="Path_35867" data-name="Path 35867" d="M68.333,86.667h3.333V83.334h-5Z" transform="translate(-38.334 -75)" fill="#0d0d0d"/>
      <path id="Path_35868" data-name="Path 35868" d="M13.333,86.667H10V83.334h5Z" transform="translate(-10 -75)" fill="#0d0d0d"/>
      <path id="Path_35869" data-name="Path 35869" d="M35,66.666h8.334v2.5H35Z" transform="translate(-22.5 -66.666)" fill="#0d0d0d"/>
      <path id="Path_35870" data-name="Path 35870" d="M56.667,66.666h4.166v2.5H56.667Z" transform="translate(-33.334 -66.666)" fill="#0d0d0d"/>
      <path id="Path_35871" data-name="Path 35871" d="M21.667,66.666h4.166v2.5H21.667Z" transform="translate(-15.834 -66.666)" fill="#0d0d0d"/>
    </g>
    <path id="Path_35872" data-name="Path 35872" d="M66.666,21.666A11.666,11.666,0,1,1,55,10,11.664,11.664,0,0,1,66.666,21.666Z" transform="translate(-16.667 0)" fill="#37a4dc"/>
    <path id="Path_35874" data-name="Path 35874" d="M66.666,25a8.334,8.334,0,1,1-8.333-8.333A8.333,8.333,0,0,1,66.666,25Z" transform="translate(-20 -3.333)" fill="#fff"/>
    <path id="Path_35876" data-name="Path 35876" d="M66.667,27.083h-3.75v-3.75h-2.5v3.75h-3.75v2.5h3.75v3.75h2.5v-3.75h3.75Z" transform="translate(-23.334 -6.667)" fill="#37a4dc"/>
  </g>
</svg>
