<svg xmlns="http://www.w3.org/2000/svg" width="100" height="25" viewBox="0 0 100 25"><g transform="translate(-352.057 -276.817)"><rect width="4.395" height="25" transform="translate(414.783 276.817)"/><rect width="2.534" height="25" transform="translate(404.066 276.817)"/><rect width="1.465" height="25" transform="translate(362.822 276.817)"/><rect width="3.14" height="25" transform="translate(384.413 276.817)"/><rect width="1.709" height="25" transform="translate(391.194 276.817)"/><rect width="2.306" height="25" transform="translate(423.201 276.817)"/><rect width="2.306" height="25" transform="translate(399.582 276.817)"/><rect width="0.733" height="25" transform="translate(368.793 276.817)"/><rect width="0.733" height="25" transform="translate(446.092 276.817)"/><rect width="0.733" height="25" transform="translate(366.174 276.817)"/><rect width="0.733" height="25" transform="translate(437.18 276.817)"/><rect width="1.258" height="25" transform="translate(431.6 276.817)"/><rect width="2.306" height="25" transform="translate(376.846 276.817)"/><rect width="0.733" height="25" transform="translate(396.797 276.817)"/><rect width="0.733" height="25" transform="translate(352.056 276.817)"/><rect width="0.733" height="25" transform="translate(443.477 276.817)"/><rect width="0.733" height="25" transform="translate(409.237 276.817)"/><rect width="0.733" height="25" transform="translate(451.324 276.817)"/><rect width="1.514" height="25" transform="translate(440.079 276.817)"/><rect width="1.465" height="25" transform="translate(427.846 276.817)"/><rect width="1.465" height="25" transform="translate(357.55 276.817)"/></g></svg>