<svg xmlns="http://www.w3.org/2000/svg" xmlns:xlink="http://www.w3.org/1999/xlink" width="138.684" height="138.685" viewBox="0 0 138.684 138.685">
  <defs>
    <clipPath id="clip-path">
      <path id="Path_13047" data-name="Path 13047" d="M1275.108,682.026a69.342,69.342,0,1,0,97.607-9.45A69.345,69.345,0,0,0,1275.108,682.026Z" transform="translate(-1259.297 -657.761)" fill="#009bda" opacity="0.8"/>
    </clipPath>
  </defs>
  <g id="Group_3420" data-name="Group 3420" transform="translate(0 1)" clip-path="url(#clip-path)">
    <g id="Group_3401" data-name="Group 3401" transform="translate(-45.075 -43.414)">
      <g id="Group_3386" data-name="Group 3386" transform="translate(82.238 14.274)">
        <rect id="Rectangle_2275" data-name="Rectangle 2275" width="1.042" height="170.114" transform="translate(0 0.804) rotate(-50.535)" fill="#009bda"/>
      </g>
      <g id="Group_3387" data-name="Group 3387" transform="translate(76.362 21.411)">
        <rect id="Rectangle_2276" data-name="Rectangle 2276" width="1.044" height="170.117" transform="translate(0 0.806) rotate(-50.535)" fill="#009bda"/>
      </g>
      <g id="Group_3388" data-name="Group 3388" transform="translate(70.484 28.547)">
        <rect id="Rectangle_2277" data-name="Rectangle 2277" width="1.044" height="170.117" transform="translate(0 0.806) rotate(-50.535)" fill="#009bda"/>
      </g>
      <g id="Group_3389" data-name="Group 3389" transform="translate(64.648 35.697)">
        <rect id="Rectangle_2278" data-name="Rectangle 2278" width="1.042" height="170.117" transform="translate(0 0.804) rotate(-50.53)" fill="#009bda"/>
      </g>
      <g id="Group_3390" data-name="Group 3390" transform="translate(58.769 42.831)">
        <rect id="Rectangle_2279" data-name="Rectangle 2279" width="1.044" height="170.114" transform="translate(0 0.806) rotate(-50.53)" fill="#009bda"/>
      </g>
      <g id="Group_3391" data-name="Group 3391" transform="translate(52.893 49.971)">
        <rect id="Rectangle_2280" data-name="Rectangle 2280" width="1.044" height="170.114" transform="translate(0 0.806) rotate(-50.53)" fill="#009bda"/>
      </g>
      <g id="Group_3392" data-name="Group 3392" transform="translate(47.016 57.107)">
        <rect id="Rectangle_2281" data-name="Rectangle 2281" width="1.042" height="170.117" transform="translate(0 0.804) rotate(-50.53)" fill="#009bda"/>
      </g>
      <g id="Group_3393" data-name="Group 3393" transform="translate(41.138 64.243)">
        <rect id="Rectangle_2282" data-name="Rectangle 2282" width="1.044" height="170.117" transform="translate(0 0.806) rotate(-50.53)" fill="#009bda"/>
      </g>
      <g id="Group_3394" data-name="Group 3394" transform="translate(35.227 71.37)">
        <rect id="Rectangle_2283" data-name="Rectangle 2283" width="1.042" height="170.114" transform="translate(0 0.804) rotate(-50.535)" fill="#009bda"/>
      </g>
      <g id="Group_3395" data-name="Group 3395" transform="translate(29.386 78.519)">
        <rect id="Rectangle_2284" data-name="Rectangle 2284" width="1.044" height="170.114" transform="translate(0 0.806) rotate(-50.53)" fill="#009bda"/>
      </g>
      <g id="Group_3396" data-name="Group 3396" transform="translate(23.475 85.643)">
        <rect id="Rectangle_2285" data-name="Rectangle 2285" width="1.044" height="170.114" transform="translate(0 0.806) rotate(-50.535)" fill="#009bda"/>
      </g>
      <g id="Group_3397" data-name="Group 3397" transform="translate(17.632 92.796)">
        <rect id="Rectangle_2286" data-name="Rectangle 2286" width="1.044" height="170.114" transform="translate(0 0.806) rotate(-50.53)" fill="#009bda"/>
      </g>
      <g id="Group_3398" data-name="Group 3398" transform="translate(11.756 99.931)">
        <rect id="Rectangle_2287" data-name="Rectangle 2287" width="1.044" height="170.114" transform="translate(0 0.806) rotate(-50.53)" fill="#009bda"/>
      </g>
      <g id="Group_3399" data-name="Group 3399" transform="translate(5.847 107.054)">
        <rect id="Rectangle_2288" data-name="Rectangle 2288" width="1.044" height="170.117" transform="translate(1 0.806) rotate(-50.535)" fill="#009bda"/>
      </g>
    </g>
    <g id="Group_3419" data-name="Group 3419" transform="translate(-47.747 -39.824)">
      <g id="Group_3403" data-name="Group 3403" transform="translate(88.153 7.145)">
        <rect id="Rectangle_2291" data-name="Rectangle 2291" width="1.042" height="170.114" transform="translate(0 -4.196) rotate(-50.53)" fill="#009bda"/>
      </g>
      <g id="Group_3417" data-name="Group 3417" transform="translate(5.844 107.053)">
        <rect id="Rectangle_2305" data-name="Rectangle 2305" width="1.044" height="170.114" transform="translate(1 0.806) rotate(-50.535)" fill="#009bda"/>
      </g>
    </g>
    <g id="Group_14889" data-name="Group 14889" transform="translate(-47.747 -45.824)">
      <g id="Group_3403-2" data-name="Group 3403" transform="translate(88.153 7.145)">
        <rect id="Rectangle_2291-2" data-name="Rectangle 2291" width="1.042" height="170.114" transform="translate(1 -4.196) rotate(-50.53)" fill="#009bda"/>
      </g>
    </g>
  </g>
</svg>
