<svg xmlns="http://www.w3.org/2000/svg" width="23.018" height="24.427" viewBox="0 0 23.018 24.427"><g transform="translate(-1394.904 -317.283)"><g transform="translate(1394.904 317.801)"><path d="M438.829,382.865h-2.17a.179.179,0,0,1-.18-.18V359.9a.18.18,0,0,1,.18-.18h2.17a.18.18,0,0,1,.18.18v22.786A.179.179,0,0,1,438.829,382.865Z" transform="translate(-432.056 -359.402)" fill="#fff"/><path d="M386.319,474.917a4.251,4.251,0,0,0-3.716-2.187h-13.2a.925.925,0,0,0-.925.925v.337a.925.925,0,0,0,.925.925h13.2a2.066,2.066,0,0,1,0,4.131h-13.2a.925.925,0,0,0-.925.925v.337a.925.925,0,0,0,.925.925h13.2a4.255,4.255,0,0,0,4.253-4.252h0A4.238,4.238,0,0,0,386.319,474.917Z" transform="translate(-368.48 -465.06)" fill="#fff"/><path d="M510.179,357.466h-2.172v-.026h-.039V356.1a1.264,1.264,0,0,0-2.528,0v1.336h.039v2.187h2.516v.026h2.185a7.181,7.181,0,0,1,0,14.362h-4.674v3.47a1.264,1.264,0,1,0,2.528,0V376.2h2.146a9.368,9.368,0,0,0,9.368-9.368h0A9.368,9.368,0,0,0,510.179,357.466Z" transform="translate(-496.529 -354.84)" fill="#fff"/></g><g transform="translate(1394.904 317.283)"><path d="M438.829,374.935h-2.17a.18.18,0,0,1-.18-.18V351.969a.18.18,0,0,1,.18-.18h2.17a.179.179,0,0,1,.18.18v22.786A.18.18,0,0,1,438.829,374.935Z" transform="translate(-432.056 -351.472)" fill="#fff"/><path d="M386.319,466.987A4.25,4.25,0,0,0,382.6,464.8h-13.2a.925.925,0,0,0-.925.925v.337a.925.925,0,0,0,.925.925h13.2a2.066,2.066,0,0,1,0,4.131h-13.2a.925.925,0,0,0-.925.925v.337a.926.926,0,0,0,.925.925h13.2a4.256,4.256,0,0,0,4.253-4.253h0A4.238,4.238,0,0,0,386.319,466.987Z" transform="translate(-368.48 -457.13)" fill="#fff"/><path d="M510.179,349.536h-2.172v-.026h-.039v-1.336a1.264,1.264,0,1,0-2.528,0v1.336h.039V351.7h2.516v.026h2.185a7.181,7.181,0,0,1,0,14.362h-4.674v3.47a1.264,1.264,0,0,0,2.528,0v-1.284h2.146a9.368,9.368,0,0,0,9.368-9.368h0A9.368,9.368,0,0,0,510.179,349.536Z" transform="translate(-496.529 -346.91)" fill="#fff"/></g></g></svg>