<svg xmlns="http://www.w3.org/2000/svg" width="16.067" height="7.849" viewBox="0 0 16.067 7.849"><g transform="translate(-1575 1692.826)"><path d="M120.209,87.563a1.43,1.43,0,0,1,1.375,1.472,1.439,1.439,0,1,1-2.875-.127A1.431,1.431,0,0,1,120.209,87.563Z" transform="translate(1458.863 -1775.393)" fill="#fff"/><path d="M168.984,89.3c-.4,0-.792,0-1.188,0-.208,0-.281-.031-.223-.276a1.479,1.479,0,0,1,1.413-1.162,1.518,1.518,0,0,1,1.423,1.16c.053.228-.023.282-.236.277-.4-.012-.792,0-1.188,0Z" transform="translate(1418.078 -1775.642)" fill="#231f20"/><path d="M189.79,91.02Z" transform="translate(1399.512 -1778.281)" fill="#50a8c5"/><path d="M119.207,64.149a4.128,4.128,0,0,0-.421-1.817,3.075,3.075,0,0,0-2.1-1.911,9.18,9.18,0,0,1-3.316-1.713,5.4,5.4,0,0,0-6.667-.47,7.712,7.712,0,0,0-3.551,5.847c-.04.281.036.406.343.383a6.173,6.173,0,0,1,.924,0c.309.023.39-.048.332-.383a2.1,2.1,0,0,1,1.037-2.293,2.423,2.423,0,0,1,2.78.053,2.075,2.075,0,0,1,.947,2.324c-.058.249.02.3.253.3.792-.013,1.586,0,2.38-.007.538,0,.565-.02.546-.578a2.3,2.3,0,0,1,.365-1.378,2.537,2.537,0,0,1,3.641-.573l0,0,.01.008a2.468,2.468,0,0,1,.68.842c0,.008.008.017.013.023a.049.049,0,0,1,.007.013c.013.03.025.059.036.091a1.805,1.805,0,0,1,.119.634.032.032,0,0,1,0,.012,1.666,1.666,0,0,1-.01.22s0,.008,0,.013c-.048.248-.167.5.061.627.258.142.659.028,1,.028.1,0,.206,0,.309,0C119.118,64.438,119.222,64.368,119.207,64.149Z" transform="translate(1471.858 -1750.129)" fill="#009bda"/><path d="M168.984,89.3c-.4,0-.792,0-1.188,0-.208,0-.281-.031-.223-.276a1.479,1.479,0,0,1,1.413-1.162,1.518,1.518,0,0,1,1.423,1.16c.053.228-.023.282-.236.277-.4-.012-.792,0-1.188,0Z" transform="translate(1418.078 -1775.642)" fill="#fff"/></g></svg>