<svg xmlns="http://www.w3.org/2000/svg" xmlns:xlink="http://www.w3.org/1999/xlink" width="46.887" height="39.378" viewBox="0 0 46.887 39.378"><defs><linearGradient id="a" y1="0.5" x2="1" y2="0.5" gradientUnits="objectBoundingBox"><stop offset="0" stop-color="#772c00"/><stop offset="0.285" stop-color="#b8460e"/><stop offset="0.709" stop-color="#fe9d2b"/><stop offset="1" stop-color="#fff58f"/></linearGradient><linearGradient id="b" y1="0.5" x2="1" y2="0.5" gradientUnits="objectBoundingBox"><stop offset="0" stop-color="#4e1a00"/><stop offset="0.491" stop-color="#7d2f00"/><stop offset="1" stop-color="#fe9d2b"/></linearGradient><linearGradient id="j" x1="1.18" y1="0.978" x2="0.095" y2="0.039" xlink:href="#b"/><linearGradient id="l" x1="1.002" y1="0.95" x2="0.109" y2="0.049" xlink:href="#b"/><linearGradient id="m" y1="0.5" x2="1" y2="0.5" gradientUnits="objectBoundingBox"><stop offset="0" stop-color="#b8460e"/><stop offset="0.491" stop-color="#fe9d2b"/><stop offset="1" stop-color="#fff584"/></linearGradient><linearGradient id="v" x1="0.339" y1="0.922" x2="0.848" y2="0.056" xlink:href="#a"/><linearGradient id="aa" x1="-132.135" y1="0.5" x2="-131.135" y2="0.5" xlink:href="#a"/><linearGradient id="ab" x1="-142.335" y1="0.5" x2="-141.335" y2="0.5" xlink:href="#b"/><linearGradient id="ac" x1="-168.755" y1="0.5" x2="-167.755" y2="0.5" xlink:href="#a"/><linearGradient id="ad" x1="-181.141" y1="0.5" x2="-180.141" y2="0.5" xlink:href="#b"/><linearGradient id="ae" x1="-222.283" y1="0.5" x2="-221.283" y2="0.5" xlink:href="#a"/><linearGradient id="af" x1="-237.585" y1="0.5" x2="-236.585" y2="0.5" xlink:href="#b"/><linearGradient id="ag" x1="-416.423" y1="0.5" x2="-415.423" y2="0.5" xlink:href="#a"/><linearGradient id="ah" x1="-627.092" y1="0.5" x2="-626.092" y2="0.5" xlink:href="#b"/><linearGradient id="ai" x1="-452.845" y1="0.5" x2="-451.845" y2="0.5" xlink:href="#a"/><linearGradient id="aj" x1="-1191.018" y1="0.978" x2="-1192.103" y2="0.039" xlink:href="#b"/><linearGradient id="ak" x1="-321.717" y1="0.5" x2="-320.717" y2="0.5" xlink:href="#a"/><linearGradient id="al" x1="-373.027" y1="0.95" x2="-373.92" y2="0.049" xlink:href="#b"/><linearGradient id="am" x1="-126.753" y1="0.5" x2="-125.753" y2="0.5" xlink:href="#m"/><linearGradient id="an" x1="-136.654" y1="0.5" x2="-135.654" y2="0.5" xlink:href="#a"/><linearGradient id="ao" x1="-175.038" y1="0.5" x2="-174.038" y2="0.5" xlink:href="#m"/><linearGradient id="ap" x1="-187.802" y1="0.5" x2="-186.802" y2="0.5" xlink:href="#a"/><linearGradient id="aq" x1="-240.693" y1="0.5" x2="-239.693" y2="0.5" xlink:href="#m"/><linearGradient id="ar" x1="-257.154" y1="0.5" x2="-256.154" y2="0.5" xlink:href="#a"/><linearGradient id="as" x1="-368.929" y1="0.5" x2="-367.929" y2="0.5" xlink:href="#m"/><linearGradient id="at" x1="-452.981" y1="0.5" x2="-451.981" y2="0.5" xlink:href="#a"/><linearGradient id="au" x1="-467.332" y1="0.5" x2="-466.332" y2="0.5" xlink:href="#m"/><linearGradient id="av" x1="-1372.917" y1="0.922" x2="-1372.407" y2="0.056" xlink:href="#a"/><linearGradient id="aw" x1="-314.301" y1="0.5" x2="-313.301" y2="0.5" xlink:href="#m"/><linearGradient id="ax" x1="-362.095" y1="0.5" x2="-361.095" y2="0.5" xlink:href="#a"/><linearGradient id="ay" x1="-183.322" y1="0.5" x2="-182.322" y2="0.5" xlink:href="#m"/><linearGradient id="az" x1="-199.734" y1="0.5" x2="-198.734" y2="0.5" xlink:href="#a"/><linearGradient id="ba" x1="0.903" y1="1.032" x2="0.091" y2="0.218" gradientUnits="objectBoundingBox"><stop offset="0" stop-color="#6d2800"/><stop offset="0.279" stop-color="#ffba29"/><stop offset="0.539" stop-color="#fff58f"/><stop offset="0.776" stop-color="#fe9d2b"/><stop offset="1" stop-color="#b8460e"/></linearGradient><linearGradient id="bb" x1="0.183" y1="1.019" x2="0.931" y2="0.04" xlink:href="#ba"/><linearGradient id="bc" x1="0" y1="0.5" x2="1" y2="0.5" xlink:href="#ba"/><linearGradient id="bd" x1="0.58" y1="1.23" x2="-0.331" y2="-4.77" xlink:href="#ba"/><linearGradient id="be" x1="0.735" y1="3.121" x2="-0.176" y2="-7.045" xlink:href="#ba"/><linearGradient id="bf" x1="0.896" y1="2.481" x2="-0.014" y2="-2.07" xlink:href="#ba"/><linearGradient id="bg" x1="1.076" y1="3.439" x2="0.202" y2="-1.008" xlink:href="#ba"/><linearGradient id="bh" x1="1.268" y1="4.56" x2="0.358" y2="-0.09" xlink:href="#ba"/><linearGradient id="bn" x1="-0.051" y1="0.554" x2="4.806" y2="-0.368" xlink:href="#ba"/><linearGradient id="bo" x1="-1.411" y1="0.771" x2="5.096" y2="-0.151" xlink:href="#ba"/><linearGradient id="bp" x1="-1.488" y1="0.965" x2="2.652" y2="0.043" xlink:href="#ba"/><linearGradient id="bq" x1="-2.62" y1="1.123" x2="1.809" y2="0.238" xlink:href="#ba"/><linearGradient id="br" x1="-4.997" y1="1.34" x2="1.038" y2="0.418" xlink:href="#ba"/><linearGradient id="bu" x1="0" y1="0.5" x2="1" y2="0.5" xlink:href="#ba"/><linearGradient id="by" x1="0.533" y1="0.967" x2="0.469" y2="0.049" gradientUnits="objectBoundingBox"><stop offset="0" stop-color="#6d2800"/><stop offset="0.564" stop-color="#fe9d2b"/><stop offset="1" stop-color="#fff58f"/></linearGradient></defs><g transform="translate(-1815.48 -164.803)"><path d="M2029.707,330.289s-3.477,5.244-9.3,4.955C2020.409,335.244,2023.015,330.654,2029.707,330.289Z" transform="translate(-168.806 -136.316)" fill="url(#a)"/><path d="M2030.126,332a30.458,30.458,0,0,1-8.634,4.526S2025.722,334.281,2030.126,332Z" transform="translate(-169.697 -137.728)" fill="url(#b)"/><path d="M2047.59,282.566s-1.638,6.075-7.251,7.644C2040.339,290.21,2041.358,285.03,2047.59,282.566Z" transform="translate(-185.223 -97.005)" fill="url(#a)"/><path d="M2047.9,285.044a30.471,30.471,0,0,1-6.756,7.026S2044.44,288.6,2047.9,285.044Z" transform="translate(-185.882 -99.046)" fill="url(#b)"/><path d="M2051.336,248.7s-.34,6.283-5.5,8.982C2045.832,257.68,2045.752,252.4,2051.336,248.7Z" transform="translate(-189.747 -69.107)" fill="url(#a)"/><path d="M2051.551,251.538a30.468,30.468,0,0,1-5.15,8.277S2048.908,255.731,2051.551,251.538Z" transform="translate(-190.216 -71.446)" fill="url(#b)"/><path d="M2043.914,214.2s1.861,6.011-2.046,10.335C2041.868,224.533,2039.962,219.611,2043.914,214.2Z" transform="translate(-186.104 -40.688)" fill="url(#a)"/><path d="M2046.1,217.363a30.491,30.491,0,0,1-1.958,9.549S2045.078,222.213,2046.1,217.363Z" transform="translate(-188.356 -43.295)" fill="url(#b)"/><path d="M2027.663,191.168s3.583,5.172,1.16,10.472C2028.823,201.64,2025.524,197.519,2027.663,191.168Z" transform="translate(-174.187 -21.718)" fill="url(#a)"/><path d="M2031.634,194.3a30.459,30.459,0,0,1,1.008,9.695S2032.118,199.233,2031.634,194.3Z" transform="translate(-178.052 -24.298)" fill="url(#j)"/><path d="M1993.69,164.8s4.729,4.15,3.661,9.878C1997.351,174.681,1993.152,171.482,1993.69,164.8Z" transform="translate(-146.757 0)" fill="url(#a)"/><path d="M1995.252,167.69a30.483,30.483,0,0,1,3.325,9.164S1996.916,172.36,1995.252,167.69Z" transform="translate(-148.083 -2.378)" fill="url(#l)"/><path d="M2008.577,352.5s-3.988,4.869-9.749,4C1998.827,356.491,2001.882,352.186,2008.577,352.5Z" transform="translate(-151.028 -154.595)" fill="url(#m)"/><path d="M2009.026,354.011a30.491,30.491,0,0,1-9.045,3.634S2004.416,355.833,2009.026,354.011Z" transform="translate(-151.979 -155.856)" fill="url(#a)"/><path d="M2031.319,310.575s-1.46,6.121-7.024,7.853C2024.295,318.428,2025.162,313.221,2031.319,310.575Z" transform="translate(-172.007 -120.077)" fill="url(#m)"/><path d="M2031.614,313.109a30.489,30.489,0,0,1-6.549,7.221S2028.262,316.763,2031.614,313.109Z" transform="translate(-172.641 -122.164)" fill="url(#a)"/><path d="M2046.876,269.339s-.052,6.292-5.087,9.226C2041.79,278.565,2041.468,273.3,2046.876,269.339Z" transform="translate(-186.414 -86.109)" fill="url(#m)"/><path d="M2047.086,272.241a30.447,30.447,0,0,1-4.764,8.5S2044.639,276.551,2047.086,272.241Z" transform="translate(-186.856 -88.5)" fill="url(#a)"/><path d="M2047.534,233.921s1.381,6.139-2.855,10.142C2044.679,244.063,2043.168,239.005,2047.534,233.921Z" transform="translate(-188.589 -56.935)" fill="url(#m)"/><path d="M2048.8,237.049a30.483,30.483,0,0,1-2.707,9.364S2047.394,241.8,2048.8,237.049Z" transform="translate(-189.96 -59.511)" fill="url(#a)"/><path d="M2038.128,200.565s2.57,5.744-.788,10.506C2037.339,211.071,2034.856,206.414,2038.128,200.565Z" transform="translate(-182.008 -29.458)" fill="url(#m)"/><path d="M2042.324,203.749a30.461,30.461,0,0,1-.8,9.716S2041.891,208.688,2042.324,203.749Z" transform="translate(-186.202 -32.081)" fill="url(#v)"/><path d="M2009.826,184.855s4.771,4.1,3.761,9.841C2013.587,194.7,2009.357,191.54,2009.826,184.855Z" transform="translate(-160.059 -16.517)" fill="url(#m)"/><path d="M2011.365,187.729a30.482,30.482,0,0,1,3.418,9.129S2013.077,192.382,2011.365,187.729Z" transform="translate(-161.355 -18.885)" fill="url(#a)"/><path d="M1969.012,167.267s5.862,2.287,6.814,8.036C1975.826,175.3,1970.788,173.729,1969.012,167.267Z" transform="translate(-126.469 -2.03)" fill="url(#m)"/><path d="M1971.256,169.528a30.449,30.449,0,0,1,6.254,7.478S1974.415,173.349,1971.256,169.528Z" transform="translate(-128.317 -3.892)" fill="url(#a)"/><path d="M1823.793,330.289s3.478,5.244,9.3,4.955C1833.091,335.244,1830.485,330.654,1823.793,330.289Z" transform="translate(-6.848 -136.316)" fill="url(#aa)"/><path d="M1826.476,332a30.464,30.464,0,0,0,8.634,4.526S1830.88,334.281,1826.476,332Z" transform="translate(-9.058 -137.728)" fill="url(#ab)"/><path d="M1815.479,282.566s1.638,6.075,7.251,7.644C1822.73,290.21,1821.711,285.03,1815.479,282.566Z" transform="translate(0.001 -97.005)" fill="url(#ac)"/><path d="M1817.479,285.044a30.479,30.479,0,0,0,6.756,7.026S1820.936,288.6,1817.479,285.044Z" transform="translate(-1.646 -99.046)" fill="url(#ad)"/><path d="M1819.9,248.7s.34,6.283,5.5,8.982C1825.4,257.68,1825.479,252.4,1819.9,248.7Z" transform="translate(-3.636 -69.107)" fill="url(#ae)"/><path d="M1821.334,251.538a30.481,30.481,0,0,0,5.15,8.277S1823.977,255.731,1821.334,251.538Z" transform="translate(-4.821 -71.446)" fill="url(#af)"/><path d="M1839.262,214.2s-1.861,6.011,2.045,10.335C1841.307,224.533,1843.213,219.611,1839.262,214.2Z" transform="translate(-19.225 -40.688)" fill="url(#ag)"/><path d="M1841.7,217.363a30.459,30.459,0,0,0,1.957,9.549S1842.723,222.213,1841.7,217.363Z" transform="translate(-21.598 -43.295)" fill="url(#ah)"/><path d="M1856.564,191.168s-3.584,5.172-1.16,10.472C1855.4,201.64,1858.7,197.519,1856.564,191.168Z" transform="translate(-32.193 -21.718)" fill="url(#ai)"/><path d="M1860.484,194.3a30.465,30.465,0,0,0-1.008,9.695S1860,199.233,1860.484,194.3Z" transform="translate(-36.219 -24.298)" fill="url(#aj)"/><path d="M1885.2,164.8s-4.729,4.15-3.66,9.878C1881.536,174.681,1885.734,171.482,1885.2,164.8Z" transform="translate(-54.283 0)" fill="url(#ak)"/><path d="M1886.163,167.69a30.472,30.472,0,0,0-3.324,9.164S1884.5,172.36,1886.163,167.69Z" transform="translate(-55.485 -2.378)" fill="url(#al)"/><path d="M1842.814,352.5s3.988,4.869,9.749,4C1852.564,356.491,1849.509,352.186,1842.814,352.5Z" transform="translate(-22.516 -154.595)" fill="url(#am)"/><path d="M1845.657,354.011a30.468,30.468,0,0,0,9.045,3.634S1850.268,355.833,1845.657,354.011Z" transform="translate(-24.857 -155.856)" fill="url(#an)"/><path d="M1832.807,310.575s1.46,6.121,7.024,7.853C1839.831,318.428,1838.964,313.221,1832.807,310.575Z" transform="translate(-14.272 -120.077)" fill="url(#ao)"/><path d="M1834.738,313.109a30.49,30.49,0,0,0,6.548,7.221S1838.089,316.763,1834.738,313.109Z" transform="translate(-15.863 -122.164)" fill="url(#ap)"/><path d="M1826.287,269.339s.052,6.292,5.087,9.226C1831.374,278.565,1831.7,273.3,1826.287,269.339Z" transform="translate(-8.902 -86.109)" fill="url(#aq)"/><path d="M1827.6,272.241a30.456,30.456,0,0,0,4.765,8.5S1830.045,276.551,1827.6,272.241Z" transform="translate(-9.981 -88.5)" fill="url(#ar)"/><path d="M1833.887,233.921s-1.38,6.139,2.856,10.142C1836.743,244.063,1838.253,239.005,1833.887,233.921Z" transform="translate(-14.985 -56.935)" fill="url(#as)"/><path d="M1835.506,237.049a30.461,30.461,0,0,0,2.707,9.364S1836.91,241.8,1835.506,237.049Z" transform="translate(-16.496 -59.511)" fill="url(#at)"/><path d="M1846.528,200.565s-2.57,5.744.789,10.506C1847.317,211.071,1849.8,206.414,1846.528,200.565Z" transform="translate(-24.801 -29.458)" fill="url(#au)"/><path d="M1850.442,203.749a30.483,30.483,0,0,0,.8,9.716S1850.875,208.688,1850.442,203.749Z" transform="translate(-28.717 -32.081)" fill="url(#av)"/><path d="M1868.722,184.855a18.232,18.232,0,0,0-3.761,13.275S1869.192,193.873,1868.722,184.855Z" transform="translate(-40.643 -16.517)" fill="url(#aw)"/><path d="M1869.613,187.729a51.959,51.959,0,0,0-3.418,12.563S1867.9,194.133,1869.613,187.729Z" transform="translate(-41.774 -18.885)" fill="url(#ax)"/><path d="M1896.1,167.267s-5.862,2.287-6.814,8.036C1889.281,175.3,1894.32,173.729,1896.1,167.267Z" transform="translate(-60.791 -2.03)" fill="url(#ay)"/><path d="M1896.472,169.528a30.452,30.452,0,0,0-6.253,7.478S1893.313,173.349,1896.472,169.528Z" transform="translate(-61.564 -3.892)" fill="url(#az)"/><path d="M1904.456,231.274V206.959l-.55-.5-5.354.5-.063.134a10.6,10.6,0,0,1-2.888,3.724,16.146,16.146,0,0,1-5.22,2.6l-.161.051-.55,5.459.55.5.3-.091a25.088,25.088,0,0,0,3.882-1.49,20.238,20.238,0,0,0,2.835-1.762v15.193h-6.352l-.55,6.719.55.5H1910.4l-.55-7.22v-.5Z" transform="translate(-61.113 -34.312)" fill="url(#ba)"/><path d="M1904.761,232.092V207.777h-5.525a10.782,10.782,0,0,1-2.952,3.806,16.254,16.254,0,0,1-5.294,2.639V219.7a24.724,24.724,0,0,0,3.845-1.475,20.53,20.53,0,0,0,3.172-2.018v15.888h-6.352v6.756h19.052v-6.756Z" transform="translate(-62.198 -35.399)" fill="url(#bb)"/><path d="M1909.851,237.993h-19.516v-7.22h6.351V215.581a20.049,20.049,0,0,1-2.835,1.762,25.182,25.182,0,0,1-3.881,1.49l-.3.092v-5.959l.161-.052a16.091,16.091,0,0,0,5.22-2.6,10.586,10.586,0,0,0,2.887-3.722l.063-.135h5.9v24.315h5.945Zm-19.052-.463h18.587v-6.292h-5.944V206.923H1898.3a11.053,11.053,0,0,1-2.951,3.752,16.358,16.358,0,0,1-5.211,2.627v4.992a23.527,23.527,0,0,0,3.508-1.368,20.27,20.27,0,0,0,3.136-1.994l.373-.283v16.588H1890.8Z" transform="translate(-61.112 -34.312)" fill="url(#bc)"/><path d="M1936.768,333.5v-2.067h.939v.847h.89v-.755h.894v.755h1.972v1.22Z" transform="translate(-99.908 -137.255)" fill="url(#bd)"/><path d="M1936.768,322.827h4.7v1.22h-4.7Z" transform="translate(-99.908 -130.169)" fill="url(#be)"/><path d="M1936.768,307.3v-.864a6.664,6.664,0,0,1,.066-1.17.807.807,0,0,1,.341-.5,1.546,1.546,0,0,1,.874-.193,1.37,1.37,0,0,1,.736.136.715.715,0,0,1,.226.536.924.924,0,0,1,.241-.487.727.727,0,0,1,.277-.155,4.45,4.45,0,0,1,.695-.03h1.238v1.133H1939.9a1.064,1.064,0,0,0-.466.06c-.061.04-.091.143-.091.311h2.117V307.3Zm.8-1.221h1.044a.542.542,0,0,0-.056-.288c-.038-.055-.16-.083-.368-.083h-.258a.392.392,0,0,0-.293.08A.458.458,0,0,0,1937.571,306.083Z" transform="translate(-99.908 -115.138)" fill="url(#bf)"/><path d="M1937.73,286.747v1.134h-.348a.685.685,0,0,0-.311.043.161.161,0,0,0-.066.145.182.182,0,0,0,.09.166.515.515,0,0,0,.273.057.762.762,0,0,0,.354-.064.913.913,0,0,0,.286-.345,3.47,3.47,0,0,1,.795-1.026,1.82,1.82,0,0,1,1-.212,1.759,1.759,0,0,1,.739.117.916.916,0,0,1,.4.454,1.788,1.788,0,0,1,.161.783,1.749,1.749,0,0,1-.185.836.913.913,0,0,1-.472.454,2.433,2.433,0,0,1-.815.107h-.308v-1.134h.572a.761.761,0,0,0,.339-.047.183.183,0,0,0,.076-.17.2.2,0,0,0-.1-.182.548.548,0,0,0-.283-.059.885.885,0,0,0-.542.113,3.621,3.621,0,0,0-.427.571,5.578,5.578,0,0,1-.437.6,1.028,1.028,0,0,1-.377.245,1.659,1.659,0,0,1-.615.1,1.7,1.7,0,0,1-.788-.138.928.928,0,0,1-.39-.446,1.771,1.771,0,0,1-.141-.742,1.925,1.925,0,0,1,.154-.81.842.842,0,0,1,.387-.444,2.033,2.033,0,0,1,.793-.109Z" transform="translate(-99.449 -100.366)" fill="url(#bg)"/><path d="M1936.768,270.521h.939v.726h3.756v1.221h-3.756v.721h-.939Z" transform="translate(-99.908 -87.083)" fill="url(#bh)"/><path d="M1941.135,333.2h-4.854v-2.227h1.1v.847h.733v-.754h1.051v.754h1.972Zm-4.695-.159h4.537v-1.063H1939v-.754h-.734v.754h-1.049v-.847h-.781Z" transform="translate(-99.507 -136.882)" fill="url(#bc)"/><path d="M1941.135,323.753h-4.854v-1.378h4.854Zm-4.695-.158h4.537v-1.062h-4.537Z" transform="translate(-99.507 -129.797)" fill="url(#bc)"/><path d="M1941.135,307.015h-4.854v-.943a6.629,6.629,0,0,1,.068-1.187.887.887,0,0,1,.373-.546,1.6,1.6,0,0,1,.92-.207,1.409,1.409,0,0,1,.782.151.568.568,0,0,1,.2.292.663.663,0,0,1,.17-.24.784.784,0,0,1,.309-.171,4.28,4.28,0,0,1,.713-.032h1.317v1.292H1939.5a.98.98,0,0,0-.423.046c-.008.006-.042.035-.051.167h2.114Zm-4.695-.158h4.537v-1.064h-2.118v-.079c0-.2.04-.321.126-.378.051-.033.155-.071.51-.071h1.482v-.977h-1.159a4.015,4.015,0,0,0-.676.028.641.641,0,0,0-.245.14.851.851,0,0,0-.214.445l-.112.452-.043-.463a.652.652,0,0,0-.194-.48,1.258,1.258,0,0,0-.69-.121,1.486,1.486,0,0,0-.829.179.725.725,0,0,0-.309.451,6.6,6.6,0,0,0-.065,1.153Zm1.847-1.064h-1.2v-.079a.512.512,0,0,1,.09-.343.453.453,0,0,1,.352-.106h.258c.243,0,.377.035.433.116a.6.6,0,0,1,.07.333Zm-1.041-.158h.88a.332.332,0,0,0-.04-.165s-.036-.047-.3-.047h-.258c-.168,0-.219.036-.233.052A.286.286,0,0,0,1937.246,305.636Z" transform="translate(-99.507 -114.769)" fill="url(#bc)"/><path d="M1937.12,289.142a1.762,1.762,0,0,1-.826-.147,1.012,1.012,0,0,1-.424-.482,1.858,1.858,0,0,1-.148-.775,2.022,2.022,0,0,1,.161-.844.925.925,0,0,1,.425-.482,2.088,2.088,0,0,1,.827-.116h.265v1.292h-.428a.6.6,0,0,0-.267.031c-.008.006-.03.02-.03.079a.107.107,0,0,0,.053.1.446.446,0,0,0,.231.044.7.7,0,0,0,.317-.055c.038-.019.12-.085.256-.315a3.5,3.5,0,0,1,.818-1.052,1.872,1.872,0,0,1,1.045-.226,1.8,1.8,0,0,1,.775.126,1,1,0,0,1,.435.491,1.876,1.876,0,0,1,.169.817,1.832,1.832,0,0,1-.2.873.988.988,0,0,1-.515.491,2.5,2.5,0,0,1-.842.112h-.387v-1.26c-.062.085-.134.192-.216.317a5.582,5.582,0,0,1-.446.614,1.088,1.088,0,0,1-.406.265A1.725,1.725,0,0,1,1937.12,289.142Zm.015-2.689a1.994,1.994,0,0,0-.76.1.781.781,0,0,0-.349.4,1.87,1.87,0,0,0-.146.778,1.7,1.7,0,0,0,.134.709.848.848,0,0,0,.356.409,1.644,1.644,0,0,0,.75.128,1.592,1.592,0,0,0,.585-.091.941.941,0,0,0,.349-.225,5.557,5.557,0,0,0,.43-.594,3.638,3.638,0,0,1,.439-.585.928.928,0,0,1,.6-.135.621.621,0,0,1,.326.071.279.279,0,0,1,.133.249.261.261,0,0,1-.112.237.717.717,0,0,1-.381.06h-.492v.976h.229a2.349,2.349,0,0,0,.787-.1.835.835,0,0,0,.431-.416,1.68,1.68,0,0,0,.176-.8,1.732,1.732,0,0,0-.153-.749.856.856,0,0,0-.362-.418,1.7,1.7,0,0,0-.7-.109,1.765,1.765,0,0,0-.957.2,3.461,3.461,0,0,0-.771,1,.974.974,0,0,1-.319.375.842.842,0,0,1-.39.072.587.587,0,0,1-.315-.069.263.263,0,0,1-.127-.233.234.234,0,0,1,.1-.212.649.649,0,0,1,.353-.056h.269v-.976Zm1.721,1.358h.628a.69.69,0,0,0,.3-.035c.009-.007.039-.026.039-.1a.12.12,0,0,0-.059-.114.474.474,0,0,0-.242-.048c-.318,0-.442.051-.49.093A1.63,1.63,0,0,0,1938.857,287.811Z" transform="translate(-99.047 -99.993)" fill="url(#bc)"/><path d="M1937.379,272.9h-1.1v-2.827h1.1v.726h3.756v1.379h-3.756Zm-.939-.159h.781v-.722h3.756v-1.062h-3.756v-.726h-.781Z" transform="translate(-99.507 -86.711)" fill="url(#bc)"/><path d="M1909.688,351.693h1.23a2.882,2.882,0,0,1,.768.079.863.863,0,0,1,.4.226.788.788,0,0,1,.182.359,3.244,3.244,0,0,1,.047.651v.409a1.707,1.707,0,0,1-.092.655.636.636,0,0,1-.341.316,1.6,1.6,0,0,1-.648.111h-.328v1.891h-1.221Zm1.221.8v1.195l.09,0a.281.281,0,0,0,.233-.083.607.607,0,0,0,.066-.344v-.386a.453.453,0,0,0-.076-.314A.473.473,0,0,0,1910.91,352.5Z" transform="translate(-77.602 -153.947)" fill="url(#bn)"/><path d="M1927.823,351.693v3.757h.742v.939H1926.6v-4.7Z" transform="translate(-91.535 -153.947)" fill="url(#bo)"/><path d="M1941.075,351.693l.7,4.7h-1.248l-.066-.844h-.436l-.074.844h-1.262l.622-4.7Zm-.647,3.02q-.093-.8-.186-1.973-.187,1.349-.234,1.973Z" transform="translate(-101.49 -153.947)" fill="url(#bp)"/><path d="M1960.056,353.281h-1.221v-.815a1.464,1.464,0,0,0-.039-.445.169.169,0,0,0-.173-.089.182.182,0,0,0-.192.108,1.64,1.64,0,0,0-.04.464v2.181a1.526,1.526,0,0,0,.04.446.174.174,0,0,0,.183.1.171.171,0,0,0,.178-.1,1.7,1.7,0,0,0,.042-.492v-.59h1.221v.184a3.619,3.619,0,0,1-.1,1.033,1.063,1.063,0,0,1-.456.536,1.559,1.559,0,0,1-.869.229,1.8,1.8,0,0,1-.885-.194.948.948,0,0,1-.461-.537,3.542,3.542,0,0,1-.113-1.035v-1.372a6.168,6.168,0,0,1,.035-.761,1.065,1.065,0,0,1,.207-.488,1.161,1.161,0,0,1,.479-.37,1.961,1.961,0,0,1,1.594.074,1,1,0,0,1,.461.52,3.136,3.136,0,0,1,.11.969Z" transform="translate(-116.714 -153.49)" fill="url(#bq)"/><path d="M1976.026,351.693h2.036v.94h-.815v.891h.762v.893h-.762v1.033h.9v.939h-2.116Z" transform="translate(-132.246 -153.947)" fill="url(#br)"/><path d="M1910.581,356.1H1909.2v-4.852h1.308a2.933,2.933,0,0,1,.789.081.935.935,0,0,1,.439.25.858.858,0,0,1,.2.393,3.349,3.349,0,0,1,.049.669v.409a1.76,1.76,0,0,1-.1.688.716.716,0,0,1-.381.355,1.684,1.684,0,0,1-.68.118h-.249Zm-1.22-.159h1.063v-1.891h.406a1.548,1.548,0,0,0,.616-.1.559.559,0,0,0,.3-.277,1.653,1.653,0,0,0,.086-.623v-.409a3.064,3.064,0,0,0-.047-.633.689.689,0,0,0-.164-.322.776.776,0,0,0-.367-.2,2.862,2.862,0,0,0-.745-.075h-1.15Zm1.231-2.535c-.026,0-.057,0-.094,0l-.074,0v-1.348h.079a.524.524,0,0,1,.368.095.5.5,0,0,1,.1.37v.386a.651.651,0,0,1-.083.393A.357.357,0,0,1,1910.592,353.41Zm-.011-.158h.011a.229.229,0,0,0,.172-.052c.015-.019.048-.084.048-.295v-.386c0-.187-.036-.241-.051-.256s-.056-.04-.179-.048Z" transform="translate(-77.202 -153.583)" fill="url(#bc)"/><path d="M1928.237,356.1h-2.122v-4.852h1.38v3.755h.742Zm-1.964-.159h1.805v-.78h-.743v-3.756h-1.063Z" transform="translate(-91.134 -153.583)" fill="url(#bc)"/><path d="M1946.051,357.57v-.007h-.156v0c-.124.9-.2,1.562-.234,1.977l-.007.085h.595l-.011-.089C1946.175,359.01,1946.113,358.348,1946.051,357.57Zm-.228,1.9q.037-.43.131-1.161c.039.435.077.824.115,1.161Z" transform="translate(-107.227 -158.782)" fill="url(#bu)"/><path d="M1940.683,351.251h-1.9l-.644,4.852h1.425l.073-.844h.291l.066.844h1.413Zm-.61,3.85h-.583l-.073.843h-1.1l.6-4.536h1.627l.675,4.536h-1.083Z" transform="translate(-101.036 -153.583)" fill="url(#bc)"/><path d="M1958.222,355.736a1.881,1.881,0,0,1-.923-.2,1.028,1.028,0,0,1-.5-.582,3.629,3.629,0,0,1-.117-1.059v-1.372a6.151,6.151,0,0,1,.035-.772,1.148,1.148,0,0,1,.222-.524,1.234,1.234,0,0,1,.51-.4,2.031,2.031,0,0,1,1.666.078,1.08,1.08,0,0,1,.5.561,3.135,3.135,0,0,1,.115,1v.525h-1.379v-.894a1.3,1.3,0,0,0-.033-.413c0-.012-.018-.042-.1-.042s-.111.039-.117.056a1.464,1.464,0,0,0-.036.436v2.181a1.388,1.388,0,0,0,.035.417c.007.017.021.055.109.055s.094-.028.105-.055a1.589,1.589,0,0,0,.036-.463V353.6h1.379v.262a3.638,3.638,0,0,1-.107,1.059,1.136,1.136,0,0,1-.487.575A1.642,1.642,0,0,1,1958.222,355.736Zm-.035-4.892a1.65,1.65,0,0,0-.672.129,1.077,1.077,0,0,0-.447.344,1,1,0,0,0-.193.452,6.084,6.084,0,0,0-.034.751v1.372a3.483,3.483,0,0,0,.109,1.009.866.866,0,0,0,.424.494,1.735,1.735,0,0,0,.846.184,1.484,1.484,0,0,0,.825-.217.979.979,0,0,0,.423-.492,3.57,3.57,0,0,0,.1-1.009v-.1h-1.062v.512a1.5,1.5,0,0,1-.049.521.286.286,0,0,1-.508,0,1.531,1.531,0,0,1-.046-.475v-2.181a1.652,1.652,0,0,1,.046-.492.254.254,0,0,1,.266-.159.24.24,0,0,1,.245.136,1.277,1.277,0,0,1,.047.477v.736h1.062v-.367a3.087,3.087,0,0,0-.105-.942.92.92,0,0,0-.428-.478A1.638,1.638,0,0,0,1958.187,350.844Z" transform="translate(-116.313 -153.116)" fill="url(#bc)"/><path d="M1977.814,356.1h-2.276v-4.852h2.195v1.1h-.816v.732h.764v1.052h-.764v.874h.9Zm-2.117-.159h1.959v-.78h-.9v-1.191h.762v-.736h-.762V352.19h.814v-.781H1975.7Z" transform="translate(-131.845 -153.583)" fill="url(#bc)"/><path d="M2004.71,352.122l-.55-.5V344.4l.55.5Z" transform="translate(-155.421 -147.941)" fill="url(#by)"/></g></svg>