<svg xmlns="http://www.w3.org/2000/svg" width="130.023" height="26.005" viewBox="0 0 130.023 26.005"><g transform="translate(50.516 -34.487)"><path d="M116.437,117.82c-5.226-.851-10.725,2.953-11.147,8.247-.4,5.055-.136,10.163-.15,15.244,0,1.37.7,2.408,2.088,2.394,1.474-.027,1.883-1.224,1.978-2.527.109-1.743-.341-3.525.355-5.387,1.078.319,2.074.692,3.125.9a10.108,10.108,0,0,0,12.034-8.088C125.551,123.739,121.649,118.658,116.437,117.82Zm-1.6,15.018a5.578,5.578,0,1,1,5.894-5.44A5.519,5.519,0,0,1,114.84,132.837Z" transform="translate(-155.584 -83.213)" fill="#231f20"/><path d="M189.018,128.9c-.75-1.078-1.924-.75-2.974-.327-1.965,4.093-5.021,5.731-8.146,4.353-.423-.191-1-.437-1.105-.791-.2-.628.246-1.064.873-1.337,2.538-1.092,5.048-2.224,7.573-3.343,1.583-1.324,5.43-1.133,3.3-4.939a9.8,9.8,0,0,0-18.188,5.321,9.772,9.772,0,0,0,18.5,4.162C189.359,130.948,189.672,129.856,189.018,128.9Zm-6.563-6.754c.423.191,1.037.478,1.119.832.164.641-.409.982-1.01,1.242-2.538,1.105-5.062,2.251-7.886,3.52C175.046,123.034,178.743,120.564,182.455,122.147Z" transform="translate(-132.208 -83.185)" fill="#231f20"/><path d="M156.158,128.9c-.75-1.078-1.924-.75-2.975-.327-1.965,4.093-5.021,5.731-8.146,4.353-.423-.191-.982-.437-1.105-.791-.2-.628.259-1.064.873-1.337,2.538-1.092,5.062-2.224,7.586-3.343,1.583-1.324,5.43-1.133,3.288-4.939a9.8,9.8,0,0,0-18.188,5.321,9.772,9.772,0,0,0,18.5,4.162C156.5,130.948,156.826,129.856,156.158,128.9Zm-6.563-6.754c.423.191,1.037.478,1.119.832.164.641-.409.982-1.01,1.242-2.538,1.105-5.062,2.251-7.886,3.52C142.186,123.034,145.883,120.564,149.595,122.147Z" transform="translate(-143.976 -83.185)" fill="#231f20"/><path d="M165.286,117.82c-5.226-.851-10.725,2.953-11.147,8.247-.4,5.055-.136,10.163-.15,15.244,0,1.37.7,2.408,2.088,2.394,1.474-.027,1.883-1.224,1.978-2.527.109-1.743-.341-3.525.355-5.387,1.078.319,2.074.692,3.125.9a10.108,10.108,0,0,0,12.034-8.088C174.4,123.739,170.5,118.658,165.286,117.82Zm-1.6,15.018a5.578,5.578,0,1,1,5.894-5.44A5.519,5.519,0,0,1,163.69,132.837Z" transform="translate(-138.093 -83.213)" fill="#231f20"/><path d="M197.625,117.82c-5.226-.851-10.725,2.953-11.147,8.247-.4,5.055-.123,10.163-.136,15.244a2.181,2.181,0,0,0,1.337,2.288,2.518,2.518,0,0,0,.737.106c.1,0,.177-.013.259-.013,1.269-.16,1.624-1.29,1.719-2.514.109-1.743-.341-3.525.355-5.387,1.078.319,2.074.692,3.125.9a10.108,10.108,0,0,0,12.034-8.088C206.739,123.739,202.837,118.658,197.625,117.82Zm-1.6,15.018a5.578,5.578,0,1,1,5.894-5.44A5.519,5.519,0,0,1,196.029,132.837Z" transform="translate(-126.511 -83.213)" fill="#009bda"/><path d="M140.107,128.9c-.75-1.078-1.91-.75-2.974-.327-1.965,4.093-5.021,5.731-8.146,4.353-.423-.191-.982-.437-1.105-.791-.2-.628.259-1.064.873-1.337,2.538-1.092,5.062-2.224,7.586-3.343,1.583-1.324,5.43-1.133,3.3-4.939a9.808,9.808,0,0,0-18.2,5.321,9.772,9.772,0,0,0,18.5,4.162C140.462,130.948,140.776,129.856,140.107,128.9Zm-6.563-6.754c.423.191,1.037.478,1.119.832.164.641-.4.982-1.01,1.242-2.538,1.105-5.062,2.251-7.886,3.52C126.136,123.034,129.833,120.564,133.544,122.147Z" transform="translate(-149.723 -83.185)" fill="#231f20"/></g></svg>