<svg xmlns="http://www.w3.org/2000/svg" width="39.153" height="12.172" viewBox="0 0 39.153 12.172">
  <path id="Path_10753" data-name="Path 10753" d="M178.865,122.853c-.342-.492-.878-.342-1.357-.149-.9,1.868-2.291,2.615-3.717,1.986-.193-.087-.455-.2-.5-.361-.093-.286.112-.486.4-.61,1.158-.5,2.3-1.015,3.455-1.525.722-.6,2.478-.517,1.507-2.254a4.472,4.472,0,0,0-8.3,2.428,4.459,4.459,0,0,0,8.442,1.9A1.366,1.366,0,0,0,178.865,122.853Zm-2.995-3.082c.193.087.473.218.511.38.075.293-.187.448-.461.567-1.158.5-2.31,1.027-3.6,1.606C172.49,120.176,174.177,119.049,175.87,119.771Z" transform="translate(-160.118 -117.73)" fill="#231f20"/>
  <path id="Path_35854" data-name="Path 35854" d="M178.865,122.853c-.342-.492-.878-.342-1.357-.149-.9,1.868-2.291,2.615-3.717,1.986-.193-.087-.455-.2-.5-.361-.093-.286.112-.486.4-.61,1.158-.5,2.3-1.015,3.455-1.525.722-.6,2.478-.517,1.507-2.254a4.472,4.472,0,0,0-8.3,2.428,4.459,4.459,0,0,0,8.442,1.9A1.366,1.366,0,0,0,178.865,122.853Zm-2.995-3.082c.193.087.473.218.511.38.075.293-.187.448-.461.567-1.158.5-2.31,1.027-3.6,1.606C172.49,120.176,174.177,119.049,175.87,119.771Z" transform="translate(-150.219 -117.73)" fill="#231f20"/>
  <path id="Path_10756" data-name="Path 10756" d="M159.106,117.756a4.437,4.437,0,0,0-5.087,3.86c-.181,2.366-.062,4.757-.068,7.135,0,.641.318,1.127.953,1.121.672-.012.859-.573.9-1.183a8.119,8.119,0,0,1,.162-2.522c.492.149.946.324,1.426.423a4.5,4.5,0,1,0,1.712-8.835Zm-.728,7.029a2.609,2.609,0,1,1,2.69-2.546A2.553,2.553,0,0,1,158.377,124.785Z" transform="translate(-153.918 -117.7)" fill="#231f20"/>
  <path id="Path_10757" data-name="Path 10757" d="M191.447,117.756a4.437,4.437,0,0,0-5.087,3.86c-.181,2.366-.056,4.757-.062,7.135a1.024,1.024,0,0,0,.61,1.071,1.122,1.122,0,0,0,.336.05c.044,0,.081-.006.118-.006.579-.075.741-.6.784-1.177a8.12,8.12,0,0,1,.162-2.522c.492.149.946.324,1.426.423a4.5,4.5,0,1,0,1.712-8.835Zm-.728,7.029a2.609,2.609,0,1,1,2.69-2.546A2.553,2.553,0,0,1,190.719,124.785Z" transform="translate(-156.125 -117.7)" fill="#009bda"/>
</svg>

