<svg xmlns="http://www.w3.org/2000/svg" width="51.815" height="52.484" viewBox="0 0 51.815 52.484"><path d="M252.375,226.478a25.908,25.908,0,1,1-25.907-25.908A25.908,25.908,0,0,1,252.375,226.478Z" transform="translate(-200.56 -199.901)" fill="#3da9f9"/><path d="M245.651,209.673a25.543,25.543,0,0,0-45.091,16.443,28.806,28.806,0,0,0,1.273,9.01C216.239,226.573,230.945,217.7,245.651,209.673Z" transform="translate(-200.56 -200.57)" fill="#87def9"/><path d="M579.25,789.308c1.337-.28,2.087-.2,3.51-.549,5.127-1.254,9.169-3.287,12.3-6.622.463-.49.452-.885,1.094-1.776-4.469,2.357-8.928,4.739-13.392,7.107C581.592,788.086,580.419,788.692,579.25,789.308Z" transform="translate(-551.061 -736.95)" fill="#87def9"/><path d="M318.9,297.467a21.164,21.164,0,1,1-21.162-20.887A21.025,21.025,0,0,1,318.9,297.467Z" transform="translate(-271.688 -270.471)" fill="#009bda"/><path d="M333.739,312.27A21.469,21.469,0,1,1,312.27,290.8,21.469,21.469,0,0,1,333.739,312.27Z" transform="translate(-285.908 -285.24)" fill="#00405a"/><path d="M438.808,382.652h-2.15a.178.178,0,0,1-.178-.178V359.9a.178.178,0,0,1,.178-.178h2.15a.178.178,0,0,1,.178.178v22.577A.178.178,0,0,1,438.808,382.652Z" transform="translate(-417.139 -344.872)" fill="#0765aa"/><path d="M386.155,474.9a4.212,4.212,0,0,0-3.682-2.167H369.4a.917.917,0,0,0-.917.917v.334a.917.917,0,0,0,.917.917h13.077a2.047,2.047,0,0,1,0,4.094H369.4a.917.917,0,0,0-.917.917v.334a.917.917,0,0,0,.916.917h13.078a4.216,4.216,0,0,0,4.214-4.213h0A4.2,4.2,0,0,0,386.155,474.9Z" transform="translate(-353.521 -450.597)" fill="#0765aa"/><path d="M510.136,357.442h-2.152v-.026h-.039v-1.323a1.253,1.253,0,0,0-2.505,0v1.323h.039v2.167h2.492v.026h2.165a7.115,7.115,0,0,1,0,14.23H505.5v3.439a1.253,1.253,0,0,0,2.505,0V376h2.126a9.282,9.282,0,0,0,9.282-9.282h0A9.282,9.282,0,0,0,510.136,357.442Z" transform="translate(-481.653 -340.307)" fill="#0765aa"/><path d="M438.808,374.722h-2.15a.178.178,0,0,1-.178-.178V351.968a.178.178,0,0,1,.178-.178h2.15a.178.178,0,0,1,.178.178v22.577A.178.178,0,0,1,438.808,374.722Z" transform="translate(-417.139 -337.454)" fill="#fff"/><path d="M386.155,466.966a4.211,4.211,0,0,0-3.682-2.167H369.4a.917.917,0,0,0-.917.917v.334a.916.916,0,0,0,.917.917h13.077a2.047,2.047,0,0,1,0,4.094H369.4a.917.917,0,0,0-.917.917v.334a.917.917,0,0,0,.916.917h13.078a4.217,4.217,0,0,0,4.214-4.213h0A4.2,4.2,0,0,0,386.155,466.966Z" transform="translate(-353.521 -443.178)" fill="#fff"/><path d="M510.136,349.512h-2.152v-.026h-.039v-1.323a1.253,1.253,0,1,0-2.505,0v1.323h.039v2.167h2.492v.026h2.165a7.115,7.115,0,0,1,0,14.23H505.5v3.439a1.253,1.253,0,0,0,2.505,0v-1.272h2.126a9.282,9.282,0,0,0,9.282-9.282h0A9.282,9.282,0,0,0,510.136,349.512Z" transform="translate(-481.653 -332.888)" fill="#fff"/></svg>