<svg xmlns="http://www.w3.org/2000/svg" width="233.726" height="169.522" viewBox="0 0 233.726 169.522"><g transform="translate(96.301 -758.879)"><path d="M-89.955,765.153a3.142,3.142,0,0,0,3.178-3.095,3.139,3.139,0,0,0-3.095-3.178,3.132,3.132,0,0,0-3.178,3.095A3.139,3.139,0,0,0-89.955,765.153Z" transform="translate(-1.661)" fill="#d6d6d6"/><path d="M-90.5,807.5a3.134,3.134,0,0,0,3.173-3.095,3.132,3.132,0,0,0-3.095-3.178,3.139,3.139,0,0,0-3.178,3.1A3.143,3.143,0,0,0-90.5,807.5Z" transform="translate(-1.38 -21.644)" fill="#d6d6d6"/><path d="M-91.035,849.853a3.139,3.139,0,0,0,3.178-3.095,3.14,3.14,0,0,0-3.1-3.178,3.131,3.131,0,0,0-3.173,3.095A3.139,3.139,0,0,0-91.035,849.853Z" transform="translate(-1.109 -43.287)" fill="#d6d6d6"/><path d="M-91.585,892.2a3.139,3.139,0,0,0,3.178-3.095A3.135,3.135,0,0,0-91.5,885.93a3.139,3.139,0,0,0-3.178,3.095A3.134,3.134,0,0,0-91.585,892.2Z" transform="translate(-0.828 -64.931)" fill="#d6d6d6"/><path d="M-92.126,934.538a3.14,3.14,0,0,0,3.178-3.1,3.142,3.142,0,0,0-3.095-3.178,3.139,3.139,0,0,0-3.178,3.095A3.13,3.13,0,0,0-92.126,934.538Z" transform="translate(-0.552 -86.564)" fill="#d6d6d6"/><path d="M-92.665,976.893a3.139,3.139,0,0,0,3.178-3.095,3.14,3.14,0,0,0-3.1-3.178,3.132,3.132,0,0,0-3.173,3.1A3.138,3.138,0,0,0-92.665,976.893Z" transform="translate(-0.276 -108.213)" fill="#d6d6d6"/><path d="M-93.205,1019.233a3.134,3.134,0,0,0,3.173-3.095,3.139,3.139,0,0,0-3.095-3.178,3.128,3.128,0,0,0-3.173,3.1A3.132,3.132,0,0,0-93.205,1019.233Z" transform="translate(0 -129.852)" fill="#d6d6d6"/><path d="M-93.205,1019.233a3.134,3.134,0,0,0,3.173-3.095,3.139,3.139,0,0,0-3.095-3.178,3.128,3.128,0,0,0-3.173,3.1A3.132,3.132,0,0,0-93.205,1019.233Z" transform="translate(0 -109.151)" fill="#d6d6d6"/><path d="M-38.64,765.813a3.136,3.136,0,0,0,3.178-3.095,3.136,3.136,0,0,0-3.1-3.178,3.143,3.143,0,0,0-3.178,3.1A3.145,3.145,0,0,0-38.64,765.813Z" transform="translate(-27.884 -0.337)" fill="#d6d6d6"/><path d="M-39.175,808.163a3.146,3.146,0,0,0,3.178-3.1,3.134,3.134,0,0,0-3.095-3.173,3.139,3.139,0,0,0-3.178,3.095A3.136,3.136,0,0,0-39.175,808.163Z" transform="translate(-27.613 -21.981)" fill="#d6d6d6"/><path d="M-39.72,850.513a3.139,3.139,0,0,0,3.178-3.095,3.139,3.139,0,0,0-3.095-3.178,3.143,3.143,0,0,0-3.183,3.095A3.146,3.146,0,0,0-39.72,850.513Z" transform="translate(-27.332 -43.625)" fill="#d6d6d6"/><path d="M-40.255,892.853a3.139,3.139,0,0,0,3.178-3.1,3.145,3.145,0,0,0-3.095-3.178,3.14,3.14,0,0,0-3.178,3.1A3.128,3.128,0,0,0-40.255,892.853Z" transform="translate(-27.061 -65.263)" fill="#d6d6d6"/><path d="M-40.8,935.2a3.143,3.143,0,0,0,3.178-3.1,3.139,3.139,0,0,0-3.095-3.178,3.142,3.142,0,0,0-3.178,3.095A3.137,3.137,0,0,0-40.8,935.2Z" transform="translate(-26.785 -86.902)" fill="#d6d6d6"/><path d="M-41.35,977.548a3.132,3.132,0,0,0,3.173-3.1,3.132,3.132,0,0,0-3.095-3.178,3.14,3.14,0,0,0-3.178,3.1A3.149,3.149,0,0,0-41.35,977.548Z" transform="translate(-26.499 -108.545)" fill="#d6d6d6"/><path d="M-41.88,1019.9A3.136,3.136,0,0,0-38.7,1016.8a3.134,3.134,0,0,0-3.095-3.173,3.131,3.131,0,0,0-3.173,3.095A3.124,3.124,0,0,0-41.88,1019.9Z" transform="translate(-26.233 -130.194)" fill="#d6d6d6"/><path d="M-41.88,1019.9A3.136,3.136,0,0,0-38.7,1016.8a3.134,3.134,0,0,0-3.095-3.173,3.131,3.131,0,0,0-3.173,3.095A3.124,3.124,0,0,0-41.88,1019.9Z" transform="translate(-26.233 -109.497)" fill="#d6d6d6"/><path d="M-41.88,1019.9A3.136,3.136,0,0,0-38.7,1016.8a3.134,3.134,0,0,0-3.095-3.173,3.131,3.131,0,0,0-3.173,3.095A3.124,3.124,0,0,0-41.88,1019.9Z" transform="translate(-26.233 -91.497)" fill="#d6d6d6"/><path d="M-41.88,1019.9A3.136,3.136,0,0,0-38.7,1016.8a3.134,3.134,0,0,0-3.095-3.173,3.131,3.131,0,0,0-3.173,3.095A3.124,3.124,0,0,0-41.88,1019.9Z" transform="translate(-51.233 -91.497)" fill="#d6d6d6"/><path d="M-41.88,1019.9A3.136,3.136,0,0,0-38.7,1016.8a3.134,3.134,0,0,0-3.095-3.173,3.131,3.131,0,0,0-3.173,3.095A3.124,3.124,0,0,0-41.88,1019.9Z" transform="translate(-1.233 -109.497)" fill="#d6d6d6"/><path d="M-41.88,1019.9A3.136,3.136,0,0,0-38.7,1016.8a3.134,3.134,0,0,0-3.095-3.173,3.131,3.131,0,0,0-3.173,3.095A3.124,3.124,0,0,0-41.88,1019.9Z" transform="translate(-1.233 -91.497)" fill="#d6d6d6"/><path d="M-41.88,1019.9A3.136,3.136,0,0,0-38.7,1016.8a3.134,3.134,0,0,0-3.095-3.173,3.131,3.131,0,0,0-3.173,3.095A3.124,3.124,0,0,0-41.88,1019.9Z" transform="translate(23.767 -109.497)" fill="#d6d6d6"/><path d="M-41.88,1019.9A3.136,3.136,0,0,0-38.7,1016.8a3.134,3.134,0,0,0-3.095-3.173,3.131,3.131,0,0,0-3.173,3.095A3.124,3.124,0,0,0-41.88,1019.9Z" transform="translate(23.767 -91.497)" fill="#d6d6d6"/><path d="M-41.88,1019.9A3.136,3.136,0,0,0-38.7,1016.8a3.134,3.134,0,0,0-3.095-3.173,3.131,3.131,0,0,0-3.173,3.095A3.124,3.124,0,0,0-41.88,1019.9Z" transform="translate(48.767 -109.497)" fill="#d6d6d6"/><path d="M-41.88,1019.9A3.136,3.136,0,0,0-38.7,1016.8a3.134,3.134,0,0,0-3.095-3.173,3.131,3.131,0,0,0-3.173,3.095A3.124,3.124,0,0,0-41.88,1019.9Z" transform="translate(48.767 -91.497)" fill="#d6d6d6"/><path d="M-41.88,1019.9A3.136,3.136,0,0,0-38.7,1016.8a3.134,3.134,0,0,0-3.095-3.173,3.131,3.131,0,0,0-3.173,3.095A3.124,3.124,0,0,0-41.88,1019.9Z" transform="translate(73.767 -109.497)" fill="#d6d6d6"/><path d="M-41.88,1019.9A3.136,3.136,0,0,0-38.7,1016.8a3.134,3.134,0,0,0-3.095-3.173,3.131,3.131,0,0,0-3.173,3.095A3.124,3.124,0,0,0-41.88,1019.9Z" transform="translate(73.767 -91.497)" fill="#d6d6d6"/><path d="M-41.88,1019.9A3.136,3.136,0,0,0-38.7,1016.8a3.134,3.134,0,0,0-3.095-3.173,3.131,3.131,0,0,0-3.173,3.095A3.124,3.124,0,0,0-41.88,1019.9Z" transform="translate(98.767 -109.497)" fill="#d6d6d6"/><path d="M-41.88,1019.9A3.136,3.136,0,0,0-38.7,1016.8a3.134,3.134,0,0,0-3.095-3.173,3.131,3.131,0,0,0-3.173,3.095A3.124,3.124,0,0,0-41.88,1019.9Z" transform="translate(98.767 -91.497)" fill="#d6d6d6"/><path d="M-41.88,1019.9A3.136,3.136,0,0,0-38.7,1016.8a3.134,3.134,0,0,0-3.095-3.173,3.131,3.131,0,0,0-3.173,3.095A3.124,3.124,0,0,0-41.88,1019.9Z" transform="translate(123.767 -109.497)" fill="#d6d6d6"/><path d="M-41.88,1019.9A3.136,3.136,0,0,0-38.7,1016.8a3.134,3.134,0,0,0-3.095-3.173,3.131,3.131,0,0,0-3.173,3.095A3.124,3.124,0,0,0-41.88,1019.9Z" transform="translate(123.767 -91.497)" fill="#d6d6d6"/><path d="M-41.88,1019.9A3.136,3.136,0,0,0-38.7,1016.8a3.134,3.134,0,0,0-3.095-3.173,3.131,3.131,0,0,0-3.173,3.095A3.124,3.124,0,0,0-41.88,1019.9Z" transform="translate(148.767 -109.497)" fill="#d6d6d6"/><path d="M-41.88,1019.9A3.136,3.136,0,0,0-38.7,1016.8a3.134,3.134,0,0,0-3.095-3.173,3.131,3.131,0,0,0-3.173,3.095A3.124,3.124,0,0,0-41.88,1019.9Z" transform="translate(148.767 -91.497)" fill="#d6d6d6"/><path d="M-41.88,1019.9A3.136,3.136,0,0,0-38.7,1016.8a3.134,3.134,0,0,0-3.095-3.173,3.131,3.131,0,0,0-3.173,3.095A3.124,3.124,0,0,0-41.88,1019.9Z" transform="translate(173.767 -109.497)" fill="#d6d6d6"/><path d="M-41.88,1019.9A3.136,3.136,0,0,0-38.7,1016.8a3.134,3.134,0,0,0-3.095-3.173,3.131,3.131,0,0,0-3.173,3.095A3.124,3.124,0,0,0-41.88,1019.9Z" transform="translate(173.767 -91.497)" fill="#d6d6d6"/><path d="M12.7,766.473A3.137,3.137,0,1,0,9.61,763.3,3.145,3.145,0,0,0,12.7,766.473Z" transform="translate(-54.127 -0.675)" fill="#d6d6d6"/><path d="M12.16,808.813a3.137,3.137,0,1,0-3.1-3.173A3.139,3.139,0,0,0,12.16,808.813Z" transform="translate(-53.846 -22.313)" fill="#d6d6d6"/><path d="M11.615,851.173A3.137,3.137,0,1,0,8.52,848,3.135,3.135,0,0,0,11.615,851.173Z" transform="translate(-53.57 -43.962)" fill="#d6d6d6"/><path d="M11.075,893.513a3.137,3.137,0,1,0-3.095-3.178A3.142,3.142,0,0,0,11.075,893.513Z" transform="translate(-53.294 -65.601)" fill="#d6d6d6"/><path d="M10.525,935.863A3.137,3.137,0,1,0,7.43,932.69,3.142,3.142,0,0,0,10.525,935.863Z" transform="translate(-53.013 -87.244)" fill="#d6d6d6"/><path d="M9.98,978.213a3.137,3.137,0,1,0-3.1-3.173A3.142,3.142,0,0,0,9.98,978.213Z" transform="translate(-52.732 -108.888)" fill="#d6d6d6"/><path d="M9.44,1020.553a3.137,3.137,0,1,0-3.1-3.178A3.143,3.143,0,0,0,9.44,1020.553Z" transform="translate(-52.456 -130.526)" fill="#d6d6d6"/><path d="M64.025,767.123a3.137,3.137,0,1,0-3.095-3.173A3.132,3.132,0,0,0,64.025,767.123Z" transform="translate(-80.355 -1.007)" fill="#d6d6d6"/><path d="M63.48,809.473a3.137,3.137,0,1,0-3.1-3.178A3.139,3.139,0,0,0,63.48,809.473Z" transform="translate(-80.074 -22.651)" fill="#d6d6d6"/><path d="M62.94,851.818a3.139,3.139,0,1,0-3.1-3.178A3.146,3.146,0,0,0,62.94,851.818Z" transform="translate(-79.798 -44.289)" fill="#d6d6d6"/><path d="M62.4,894.173a3.137,3.137,0,1,0-3.1-3.178A3.131,3.131,0,0,0,62.4,894.173Z" transform="translate(-79.522 -65.938)" fill="#d6d6d6"/><path d="M61.86,936.523a3.137,3.137,0,1,0-3.1-3.173A3.142,3.142,0,0,0,61.86,936.523Z" transform="translate(-79.246 -87.582)" fill="#d6d6d6"/><path d="M61.315,978.858a3.139,3.139,0,1,0-3.095-3.183A3.14,3.14,0,0,0,61.315,978.858Z" transform="translate(-78.97 -109.215)" fill="#d6d6d6"/><path d="M60.765,1021.218a3.134,3.134,0,1,0-3.095-3.173A3.143,3.143,0,0,0,60.765,1021.218Z" transform="translate(-78.689 -130.869)" fill="#d6d6d6"/><path d="M115.355,767.788a3.134,3.134,0,1,0-3.095-3.173A3.132,3.132,0,0,0,115.355,767.788Z" transform="translate(-106.588 -1.349)" fill="#d6d6d6"/><path d="M114.81,810.138a3.139,3.139,0,1,0-3.1-3.183A3.139,3.139,0,0,0,114.81,810.138Z" transform="translate(-106.307 -22.988)" fill="#d6d6d6"/><path d="M114.274,852.483a3.137,3.137,0,1,0-3.095-3.173A3.139,3.139,0,0,0,114.274,852.483Z" transform="translate(-106.036 -44.631)" fill="#d6d6d6"/><path d="M113.73,894.828a3.139,3.139,0,1,0-3.09-3.183A3.14,3.14,0,0,0,113.73,894.828Z" transform="translate(-105.76 -66.27)" fill="#d6d6d6"/><path d="M113.18,937.178a3.139,3.139,0,1,0-3.1-3.183A3.14,3.14,0,0,0,113.18,937.178Z" transform="translate(-105.474 -87.914)" fill="#d6d6d6"/><path d="M112.645,979.523a3.137,3.137,0,1,0-3.095-3.178A3.136,3.136,0,0,0,112.645,979.523Z" transform="translate(-105.203 -109.557)" fill="#d6d6d6"/><path d="M112.095,1021.868a3.134,3.134,0,1,0-3.095-3.173A3.133,3.133,0,0,0,112.095,1021.868Z" transform="translate(-104.922 -131.201)" fill="#d6d6d6"/><path d="M166.68,768.448a3.139,3.139,0,1,0-3.1-3.178A3.135,3.135,0,0,0,166.68,768.448Z" transform="translate(-132.816 -1.681)" fill="#d6d6d6"/><path d="M166.135,810.788a3.139,3.139,0,1,0-3.095-3.178A3.144,3.144,0,0,0,166.135,810.788Z" transform="translate(-132.54 -23.32)" fill="#d6d6d6"/><path d="M165.595,853.143a3.137,3.137,0,1,0-3.095-3.173A3.132,3.132,0,0,0,165.595,853.143Z" transform="translate(-132.264 -44.969)" fill="#d6d6d6"/><path d="M165.055,895.483a3.137,3.137,0,1,0-3.095-3.173A3.138,3.138,0,0,0,165.055,895.483Z" transform="translate(-131.988 -66.607)" fill="#d6d6d6"/><path d="M164.51,937.833a3.137,3.137,0,1,0-3.1-3.178A3.135,3.135,0,0,0,164.51,937.833Z" transform="translate(-131.707 -88.251)" fill="#d6d6d6"/><path d="M163.965,980.183A3.137,3.137,0,1,0,160.87,977,3.135,3.135,0,0,0,163.965,980.183Z" transform="translate(-131.431 -109.895)" fill="#d6d6d6"/><path d="M163.425,1022.528a3.134,3.134,0,1,0-3.095-3.173A3.136,3.136,0,0,0,163.425,1022.528Z" transform="translate(-131.155 -131.538)" fill="#d6d6d6"/><path d="M218,769.1a3.139,3.139,0,1,0-3.095-3.183A3.143,3.143,0,0,0,218,769.1Z" transform="translate(-159.049 -2.014)" fill="#d6d6d6"/><path d="M217.46,811.443a3.137,3.137,0,1,0-3.1-3.178A3.132,3.132,0,0,0,217.46,811.443Z" transform="translate(-158.768 -23.657)" fill="#d6d6d6"/><path d="M216.925,853.793a3.137,3.137,0,1,0-3.095-3.178A3.139,3.139,0,0,0,216.925,853.793Z" transform="translate(-158.497 -45.301)" fill="#d6d6d6"/><path d="M216.38,896.143a3.137,3.137,0,1,0-3.1-3.178A3.131,3.131,0,0,0,216.38,896.143Z" transform="translate(-158.216 -66.945)" fill="#d6d6d6"/><path d="M215.845,938.483a3.137,3.137,0,1,0-3.095-3.178A3.132,3.132,0,0,0,215.845,938.483Z" transform="translate(-157.945 -88.583)" fill="#d6d6d6"/><path d="M215.295,980.838a3.139,3.139,0,1,0-3.095-3.183A3.14,3.14,0,0,0,215.295,980.838Z" transform="translate(-157.664 -110.227)" fill="#d6d6d6"/><path d="M214.76,1023.188a3.134,3.134,0,1,0-3.1-3.173A3.139,3.139,0,0,0,214.76,1023.188Z" transform="translate(-157.388 -131.875)" fill="#d6d6d6"/><path d="M269.34,769.758a3.139,3.139,0,1,0-3.09-3.178A3.143,3.143,0,0,0,269.34,769.758Z" transform="translate(-185.287 -2.351)" fill="#d6d6d6"/><path d="M268.795,812.113a3.137,3.137,0,1,0-3.095-3.173A3.139,3.139,0,0,0,268.795,812.113Z" transform="translate(-185.006 -24)" fill="#d6d6d6"/><path d="M268.25,854.448a3.139,3.139,0,1,0-3.1-3.178A3.136,3.136,0,0,0,268.25,854.448Z" transform="translate(-184.725 -45.633)" fill="#d6d6d6"/><path d="M267.7,896.808a3.134,3.134,0,1,0-3.1-3.173A3.131,3.131,0,0,0,267.7,896.808Z" transform="translate(-184.444 -67.287)" fill="#d6d6d6"/><path d="M267.174,939.148a3.139,3.139,0,1,0-3.095-3.183A3.146,3.146,0,0,0,267.174,939.148Z" transform="translate(-184.178 -88.92)" fill="#d6d6d6"/><path d="M266.625,981.5a3.137,3.137,0,1,0-3.095-3.178A3.14,3.14,0,0,0,266.625,981.5Z" transform="translate(-183.897 -110.569)" fill="#d6d6d6"/><path d="M266.085,1023.843a3.137,3.137,0,1,0-3.095-3.178A3.143,3.143,0,0,0,266.085,1023.843Z" transform="translate(-183.621 -132.208)" fill="#d6d6d6"/><path d="M320.665,770.418a3.139,3.139,0,1,0-3.095-3.183A3.143,3.143,0,0,0,320.665,770.418Z" transform="translate(-211.515 -2.688)" fill="#d6d6d6"/><path d="M320.125,812.773a3.137,3.137,0,1,0-3.095-3.178A3.14,3.14,0,0,0,320.125,812.773Z" transform="translate(-211.239 -24.337)" fill="#d6d6d6"/><path d="M319.58,855.108a3.139,3.139,0,1,0-3.1-3.183A3.143,3.143,0,0,0,319.58,855.108Z" transform="translate(-210.958 -45.97)" fill="#d6d6d6"/><path d="M319.04,897.458a3.139,3.139,0,1,0-3.1-3.178A3.132,3.132,0,0,0,319.04,897.458Z" transform="translate(-210.682 -67.614)" fill="#d6d6d6"/><path d="M318.495,939.8a3.137,3.137,0,1,0-3.095-3.178A3.136,3.136,0,0,0,318.495,939.8Z" transform="translate(-210.406 -89.258)" fill="#d6d6d6"/><path d="M317.955,982.153a3.137,3.137,0,1,0-3.095-3.178A3.139,3.139,0,0,0,317.955,982.153Z" transform="translate(-210.13 -110.901)" fill="#d6d6d6"/><path d="M317.41,1024.5a3.134,3.134,0,1,0-3.1-3.173A3.138,3.138,0,0,0,317.41,1024.5Z" transform="translate(-209.849 -132.545)" fill="#d6d6d6"/><path d="M371.995,771.083A3.137,3.137,0,1,0,368.9,767.9,3.143,3.143,0,0,0,371.995,771.083Z" transform="translate(-237.748 -3.031)" fill="#d6d6d6"/><path d="M371.45,813.418a3.139,3.139,0,1,0-3.1-3.178A3.143,3.143,0,0,0,371.45,813.418Z" transform="translate(-237.467 -24.664)" fill="#d6d6d6"/><path d="M370.91,855.773a3.137,3.137,0,1,0-3.1-3.178A3.131,3.131,0,0,0,370.91,855.773Z" transform="translate(-237.191 -46.313)" fill="#d6d6d6"/><path d="M370.365,898.117a3.139,3.139,0,1,0-3.095-3.178A3.143,3.143,0,0,0,370.365,898.117Z" transform="translate(-236.915 -67.951)" fill="#d6d6d6"/><path d="M369.82,940.463a3.137,3.137,0,1,0-3.1-3.173A3.125,3.125,0,0,0,369.82,940.463Z" transform="translate(-236.634 -89.595)" fill="#d6d6d6"/><path d="M369.28,982.808a3.139,3.139,0,1,0-3.1-3.178A3.146,3.146,0,0,0,369.28,982.808Z" transform="translate(-236.358 -111.234)" fill="#d6d6d6"/><path d="M368.74,1025.163a3.137,3.137,0,1,0-3.09-3.178A3.147,3.147,0,0,0,368.74,1025.163Z" transform="translate(-236.087 -132.882)" fill="#d6d6d6"/></g></svg>