<svg viewBox="0 0 14 21" fill="none" xmlns="http://www.w3.org/2000/svg">
<path d="M6.9336 17.5683C7.21355 17.5683 7.50977 17.5032 7.82227 17.373C8.13477 17.2428 8.44076 17.0703 8.74024 16.8554C9.04623 16.6341 9.33593 16.3802 9.60938 16.0937C9.88932 15.8007 10.1334 15.4948 10.3418 15.1757C10.5566 14.8567 10.7259 14.5345 10.8496 14.2089C10.9733 13.8769 11.0351 13.5612 11.0351 13.2617C11.0351 12.7994 10.9342 12.3535 10.7324 11.9238L10.5273 11.9824C10.5013 12.1712 10.4492 12.36 10.3711 12.5488C10.2929 12.7376 10.1823 12.9101 10.039 13.0664C9.89583 13.2161 9.7168 13.3398 9.50196 13.4375C9.28711 13.5351 9.02994 13.5839 8.73046 13.5839C8.41145 13.5839 8.12175 13.5286 7.86133 13.4179C7.60092 13.3073 7.3763 13.1575 7.1875 12.9687C7.0052 12.7799 6.86197 12.5618 6.75781 12.3144C6.66015 12.0605 6.61132 11.7936 6.61132 11.5136C6.61132 11.2988 6.6504 11.0546 6.72852 10.7812C6.80665 10.5078 6.95312 10.2539 7.16796 10.0195C7.38281 9.77864 7.67579 9.57684 8.04688 9.41404C8.42448 9.2513 8.91276 9.16992 9.51171 9.16992C10.2148 9.16992 10.8203 9.29036 11.3281 9.53124C11.8359 9.76564 12.2526 10.0781 12.5781 10.4687C12.9101 10.8593 13.1543 11.3086 13.3105 11.8164C13.4733 12.3242 13.5547 12.8515 13.5547 13.3984C13.5547 14.0625 13.4505 14.6875 13.2422 15.2734C13.0338 15.8528 12.7539 16.3899 12.4023 16.8847C12.0573 17.373 11.6601 17.8125 11.2109 18.2031C10.7682 18.5937 10.3092 18.9257 9.83403 19.1992C9.35873 19.4726 8.88998 19.6809 8.42774 19.8242C7.9655 19.9674 7.54232 20.039 7.15821 20.039C6.93034 20.039 6.66015 20.0065 6.34765 19.9414C6.04166 19.8828 5.72265 19.7753 5.39062 19.6191C5.0586 19.4694 4.73307 19.261 4.41406 18.9941C4.09505 18.7337 3.8086 18.4017 3.55469 17.998C3.30079 17.5944 3.09571 17.1126 2.93946 16.5527C2.78321 15.9863 2.70508 15.3287 2.70508 14.58V8.36914H0V6.17187H2.70508V2.93945L2.64649 2.91016C2.5879 2.92969 2.52278 2.94596 2.45117 2.95898C2.38606 2.96549 2.32421 2.96875 2.26562 2.96875C2.09636 2.96875 1.93359 2.9362 1.77734 2.87109C1.62109 2.79948 1.48438 2.70508 1.36718 2.58789C1.25 2.4707 1.15559 2.33398 1.08398 2.17773C1.01236 2.01497 0.976565 1.84245 0.976565 1.66016C0.976565 1.48437 1.01562 1.29883 1.09374 1.10352C1.17187 0.908201 1.28907 0.729171 1.44532 0.566411C1.60808 0.403651 1.8099 0.270183 2.05079 0.166016C2.29167 0.055339 2.57486 0 2.90039 0C3.3496 0 3.72396 0.104167 4.02344 0.3125C4.32292 0.514321 4.56381 0.781251 4.7461 1.11328C4.92839 1.44531 5.05859 1.81966 5.13671 2.23633C5.21484 2.65299 5.2539 3.07292 5.2539 3.49609V6.17187H13.9258V8.36914H5.2539V14.2675C5.2539 14.7884 5.2832 15.2343 5.34179 15.6054C5.4069 15.97 5.48829 16.276 5.58594 16.5234C5.69011 16.7643 5.80403 16.9563 5.92773 17.0996C6.05794 17.2363 6.1849 17.3405 6.3086 17.4121C6.4323 17.4837 6.54947 17.5293 6.66015 17.5488C6.77083 17.5618 6.86198 17.5683 6.9336 17.5683Z" fill="#000"/>
</svg>
