<svg xmlns="http://www.w3.org/2000/svg" width="100" height="100" viewBox="0 0 100 100">
  <g id="user" transform="translate(0 0.16)">
    <circle id="Ellipse_692" data-name="Ellipse 692" cx="50" cy="50" r="50" transform="translate(0 -0.16)" fill="#f2f2f4"/>
    <path id="Path_35861" data-name="Path 35861" d="M256,0V99.84A49.92,49.92,0,0,0,256,0Z" transform="translate(-206.08)" fill="#dfdfe1"/>
    <path id="Path_35862" data-name="Path 35862" d="M37.908,55.57a20.475,20.475,0,1,1,24.024,0A38.171,38.171,0,0,1,87.024,83.313a49.92,49.92,0,1,0-74.208,0A38.171,38.171,0,0,1,37.908,55.57Z" fill="#68d0e8"/>
    <path id="Path_35863" data-name="Path 35863" d="M256,0V18.525A20.468,20.468,0,0,1,268.012,55.57,38.171,38.171,0,0,1,293.1,83.313,49.918,49.918,0,0,0,256,0Z" transform="translate(-206.08)" fill="#35a2dd"/>
  </g>
</svg>
