<svg width="20" height="19" viewBox="0 0 20 19" fill="none" xmlns="http://www.w3.org/2000/svg">
<path d="M16.0952 10.4073L7.25757 9.02246L8.42914 14.2887L16.0952 10.4073Z" fill="#D12053"/>
<path d="M16.0954 10.4073L9.436 1.15479L7.25952 9.02412L16.0954 10.4073Z" fill="#E2136E"/>
<path d="M7.0527 8.91758L0.0749512 0L9.21251 1.09157L7.0527 8.91758Z" fill="#D12053"/>
<path d="M3.87467 5.19115L0 1.53979H1.01991L3.87467 5.19115Z" fill="#9E1638"/>
<path d="M17.9803 5.90942L16.3405 10.3574L13.6824 6.68103L17.9803 5.90942Z" fill="#D12053"/>
<path d="M9.46069 14.0221L15.8952 11.4373L16.1651 10.6157L9.46069 14.0221Z" fill="#E2136E"/>
<path d="M4.3147 18.9001L7.07113 9.23096L8.46935 15.5221L4.3147 18.9001Z" fill="#9E1638"/>
<path d="M18.2367 5.94434L17.5601 7.78085L19.9999 7.74085L18.2367 5.94434Z" fill="#E2136E"/>
</svg>
