<svg width="20" height="20" viewBox="0 0 20 20" fill="none" xmlns="http://www.w3.org/2000/svg">
<path d="M18.1539 10.3847C18.1539 10.6539 18.1539 10.8847 18.1154 11.1154C18.0385 12.1924 17.7692 13.1924 17.3462 14.1154C17.1923 14.5001 17 14.8462 16.7692 15.1924C15.1538 17.7308 12.3077 19.4231 9.07693 19.4231C7.69231 19.4231 6.38462 19.1154 5.23077 18.577C2.15385 17.1539 0 14.0001 0 10.3847C0 6.80775 2.07692 3.73083 5.03846 2.26929C4.80769 2.57698 4.57692 2.88467 4.38462 3.23083C4.38462 3.26929 4.34615 3.26929 4.34615 3.30775C4.23077 3.42313 4.11539 3.50006 4 3.61544C3.84615 3.73083 3.73077 3.88467 3.57692 4.00006L3.5 4.07698L3.42308 4.1539C3.38462 4.19236 3.34615 4.26929 3.26923 4.30775C3.19231 4.42313 3.07692 4.53852 3 4.6539C2.61539 5.1539 2.30769 5.69236 2.07692 6.26929C2.03846 6.30775 2.03846 6.38467 2 6.42313C1.96154 6.50006 1.96154 6.57698 1.92308 6.61544C1.92308 6.6539 1.88462 6.69236 1.88462 6.73083C1.84615 6.84621 1.80769 6.92313 1.76923 7.03852C1.73077 7.11544 1.73077 7.19236 1.69231 7.23083C1.69231 7.26929 1.65385 7.30775 1.65385 7.34621C1.65385 7.42313 1.61538 7.50006 1.61538 7.57698L1.5 8.26929C1.5 8.34621 1.5 8.38467 1.46154 8.4616V9.38467C1.46154 11.8462 2.57692 14.077 4.38462 15.5001C5.76923 16.6154 7.5 17.3078 9.38462 17.3078C11.1154 17.3078 12.6923 16.7693 14 15.8078C14.9615 15.1154 15.7308 14.2308 16.3077 13.1924C16.3846 13.0385 16.4615 12.9231 16.5385 12.7693C17 11.8078 17.2692 10.7693 17.2692 9.6539V9.38467C17.2692 9.11544 17.2692 8.88467 17.2308 8.61544L17.2692 8.6539C17.3846 8.76929 17.5 8.84621 17.6154 8.9616C17.7308 8.76929 17.8462 8.61544 17.9615 8.42313C18.0385 8.76929 18.0769 9.11544 18.1154 9.50006C18.1539 9.84621 18.1539 10.1154 18.1539 10.3847Z" fill="#ED1C24"/>
<path d="M10.1538 3.11538L8.46148 0C5.65379 1.26923 3.73071 4.07692 3.73071 7.34616C3.73071 9 4.23071 10.5385 5.07687 11.8077C4.99994 11.3846 4.99994 10.9615 4.99994 10.5C5.03841 7.15385 7.15379 4.30769 10.1538 3.11538Z" fill="#F7941D"/>
<path d="M11.5 4.6539C12.1923 4.4616 12.9615 4.38467 13.6923 4.38467C14.1538 4.38467 14.6538 4.42313 15.0769 4.50006L15.0384 3.11544L14.9615 0.34621C14.6538 0.307749 14.3077 0.269287 13.9615 0.269287C12.4231 0.269287 11 0.769287 9.84614 1.57698L10.7692 3.26929C9.11537 3.84621 7.76921 5.00006 6.92306 6.50006C6.49998 7.23083 6.19229 8.07698 6.0769 8.9616C6.30767 8.50006 6.5769 8.07698 6.8846 7.69237C7.99998 6.23083 9.61537 5.11544 11.5 4.6539Z" fill="#ED1C24"/>
<path d="M15.5385 3.0769L15.6154 5.03844C14.9616 4.84614 14.3077 4.73075 13.577 4.73075C12.2308 4.73075 10.9616 5.11537 9.84619 5.76921C8.46158 6.61537 7.38465 7.96152 6.84619 9.53844C7.38465 8.80767 8.0385 8.15383 8.80773 7.65383C9.92312 6.92306 11.2693 6.49998 12.6923 6.49998C13.7693 6.49998 14.7693 6.73075 15.6923 7.15383C16.3847 7.46152 17 7.8846 17.5385 8.42306L18.6154 6.80767L20 4.69229C18.7693 3.69229 17.2308 3.0769 15.5385 3.0769Z" fill="#F7941D"/>
<path d="M17.2691 9.46145V9.73068C17.2691 11.3461 16.6153 12.6922 16.5384 12.8461C16.4614 12.9999 16.3845 13.1153 16.3076 13.2691C15.7307 14.3076 14.9614 15.1922 13.9999 15.8845C12.6922 16.8076 11.1153 17.3845 9.3845 17.3845C7.49989 17.3845 5.73066 16.7307 4.3845 15.5768C2.61527 14.1153 1.46143 11.923 1.46143 9.46145V8.53837C1.46143 8.46145 1.46143 8.42298 1.49989 8.34606L1.61527 7.65375C1.61527 7.57683 1.65373 7.49991 1.65373 7.42298C1.65373 7.38452 1.69219 7.34606 1.69219 7.3076C1.73066 7.23068 1.73066 7.15375 1.76912 7.11529C1.80758 6.99991 1.84604 6.88452 1.8845 6.8076C1.8845 6.76914 1.92296 6.73068 1.92296 6.69222C1.96143 6.61529 1.96143 6.53837 1.99989 6.49991C2.03835 6.46145 2.03835 6.38452 2.07681 6.34606C2.30758 5.76914 2.65373 5.23068 2.99989 4.73068C3.07681 4.61529 3.1922 4.49991 3.26912 4.38452C3.30758 4.34606 3.34604 4.26914 3.42296 4.23068C3.46143 4.19221 3.46143 4.15375 3.49989 4.15375C3.53835 4.11529 3.53835 4.07683 3.57681 4.07683C3.6922 3.92298 3.84604 3.8076 3.99989 3.69221C4.11527 3.57683 4.23066 3.49991 4.34604 3.38452C4.34604 3.42298 4.30758 3.42298 4.30758 3.46144C4.30758 3.49991 4.26912 3.53837 4.26912 3.53837C3.80758 4.46145 3.49989 5.57683 3.3845 6.73068C3.34604 7.03837 3.34604 7.34606 3.34604 7.69222C3.34604 11.8461 5.76912 15.1922 8.76912 15.1922H9.07681C9.49989 15.1922 9.92297 15.1153 10.346 15.0384C12.3845 14.4999 13.8845 12.6153 13.8845 10.423V10.3076C13.846 8.99991 13.3076 7.8076 12.423 6.99991C13.0384 6.99991 13.6537 7.11529 14.2307 7.26914C15.346 7.53837 16.346 8.07683 17.2307 8.76914L17.2691 8.8076C17.2307 8.96145 17.2691 9.23068 17.2691 9.46145Z" fill="#F7941D"/>
<path d="M17.2692 9.46148V9.73071C17.2692 11.423 16.4999 12.8846 16.4999 12.8846C16.423 13.0384 16.3461 13.1538 16.2692 13.3076C15.6922 14.3461 14.8845 15.2307 13.923 15.923C12.5769 16.923 10.9615 17.423 9.26916 17.423C7.423 17.423 5.65377 16.7692 4.23069 15.6153C2.38454 14.1153 1.30762 11.8461 1.30762 9.46148C1.30762 7.07687 2.38454 4.80764 4.23069 3.30764L4.30762 3.23071C4.30762 3.26917 4.26916 3.26917 4.26916 3.30764C4.26916 3.3461 4.23069 3.3461 4.23069 3.38456C2.423 4.88456 1.38454 7.07687 1.38454 9.46148C1.38454 11.8461 2.423 14.0384 4.26916 15.5769C5.65377 16.7307 7.46146 17.3461 9.26916 17.3461C10.923 17.3461 12.5384 16.8461 13.8845 15.8461C14.8461 15.1538 15.6153 14.2692 16.1922 13.2307C16.2692 13.0769 16.3461 12.9615 16.3845 12.8076C16.3845 12.8076 17.1538 11.3846 17.1538 9.69225V9.42302C17.1538 9.15379 17.1538 8.92302 17.1153 8.65379V8.61533L17.1538 8.65379L17.1922 8.69225C17.2692 8.99994 17.2692 9.23071 17.2692 9.46148Z" fill="#F7941D"/>
</svg>
