<svg width="20" height="21" viewBox="0 0 20 21" fill="none" xmlns="http://www.w3.org/2000/svg">
<path d="M16.9963 8.21814C16.6282 8.06549 16.1974 8.2359 16.0538 8.61275L15.4166 10.1386L14.7975 8.61275C14.6448 8.2359 14.2232 8.06539 13.846 8.21814C13.4782 8.37047 13.2989 8.79246 13.4514 9.16932L14.7257 12.2834L14.5911 12.6155C14.5192 12.795 14.3936 12.9386 14.241 13.0372C14.0705 13.1448 13.8911 13.1899 13.7116 13.1899C13.3617 13.1808 13.0655 13.4592 13.0566 13.818C13.0476 14.1679 13.3347 14.4642 13.6848 14.4732H13.7296C14.1513 14.4732 14.5642 14.3476 14.9231 14.1231C15.3 13.8809 15.5963 13.5308 15.7758 13.118V13.109L16.7181 10.8386L16.745 10.7577L17.4 9.16921C17.5437 8.79246 17.3643 8.37047 16.9963 8.21814Z" fill="#282829"/>
<path d="M13.3811 12.0502V10.4334H13.3807C13.3807 10.4307 13.3811 10.4284 13.3811 10.4259C13.3811 9.36686 12.6453 8.48071 11.6579 8.24549V8.24431C11.6496 8.24238 11.6413 8.2411 11.6329 8.23907C11.6062 8.23308 11.5791 8.22741 11.552 8.22217C11.4979 8.2119 11.4431 8.20355 11.3879 8.19714C11.3705 8.19521 11.353 8.19393 11.3356 8.19243C11.2705 8.18644 11.2046 8.18237 11.1375 8.18237C9.89924 8.18237 8.89404 9.18736 8.89404 10.426C8.89404 11.6645 9.89914 12.6696 11.1375 12.6696C11.2035 12.6696 11.269 12.6655 11.3337 12.6597C11.3555 12.6578 11.3774 12.6557 11.3993 12.653C11.4451 12.6474 11.4906 12.6407 11.5358 12.6322C11.583 12.6237 11.6293 12.6133 11.6753 12.602C11.6939 12.5973 11.7123 12.5927 11.7305 12.5876C11.8583 12.5525 11.9814 12.5067 12.0989 12.4506C12.1058 12.4472 12.1129 12.4438 12.1199 12.4405C12.1579 12.4218 12.1961 12.4033 12.2327 12.3828C12.3495 12.5529 12.5378 12.6694 12.7619 12.6694C13.103 12.6694 13.3811 12.3911 13.3811 12.0502ZM11.972 10.4334C11.9699 10.655 11.8807 10.8586 11.7299 11.0182C11.5683 11.1707 11.362 11.2606 11.1375 11.2606C10.9132 11.2606 10.7069 11.1708 10.5455 11.0182C10.3839 10.8566 10.3031 10.6504 10.3031 10.4259C10.3031 10.2017 10.3839 9.9952 10.5455 9.83357C10.7069 9.67204 10.9132 9.59128 11.1375 9.59128C11.1816 9.59128 11.2246 9.59534 11.2671 9.60155C11.2734 9.6024 11.2797 9.60315 11.2859 9.60412C11.3269 9.61107 11.3669 9.62112 11.4058 9.63396C11.4115 9.63599 11.417 9.63803 11.4227 9.63995C11.4628 9.65407 11.5022 9.67076 11.5397 9.6913C11.5408 9.69194 11.542 9.69258 11.543 9.69322C11.5825 9.71504 11.6208 9.74018 11.6569 9.76917C11.682 9.78907 11.7064 9.81025 11.7299 9.83346C11.8914 9.99509 11.9722 10.2015 11.9722 10.4258C11.9722 10.4284 11.972 10.4307 11.972 10.4334Z" fill="#282829"/>
<path d="M6.41239 8.1731C6.26274 8.1731 6.11576 8.18882 5.97285 8.2177V8.22444C4.94037 8.42565 4.15991 9.33469 4.15991 10.4257C4.15991 10.4282 4.16023 10.4305 4.16023 10.4332H4.15991V11.5385V11.6102V13.3872C4.15991 13.773 4.48296 14.0962 4.87779 14.0962C5.26353 14.0962 5.58679 13.773 5.58679 13.3872V12.5166C5.83806 12.6243 6.12517 12.6782 6.41249 12.6782C7.65977 12.6782 8.66508 11.6732 8.66508 10.4256C8.66497 9.1784 7.65966 8.1731 6.41239 8.1731ZM7.00468 11.0181C6.84316 11.1796 6.6366 11.2605 6.41239 11.2605C6.33098 11.2605 6.25215 11.2495 6.17695 11.2283C6.17395 11.2273 6.17074 11.2269 6.16764 11.2259C6.14646 11.2197 6.12592 11.2122 6.10549 11.2042C6.10057 11.2025 6.09565 11.201 6.09105 11.1992C5.99189 11.1589 5.90043 11.0986 5.82009 11.0182C5.66049 10.8673 5.57128 10.655 5.56914 10.4334C5.56914 10.4307 5.56871 10.4285 5.56871 10.4259C5.56871 10.2017 5.64958 9.99523 5.81111 9.8336C5.86085 9.78386 5.9154 9.74267 5.97285 9.70833V9.70855C5.99873 9.69272 6.0259 9.67924 6.05329 9.66608C6.16154 9.61687 6.27953 9.59131 6.4034 9.59131V9.58286C6.40629 9.58286 6.40939 9.58232 6.41239 9.58232C6.6366 9.58232 6.84316 9.67207 7.00468 9.82461C7.16621 9.98614 7.25606 10.2017 7.25606 10.4259C7.25606 10.6502 7.16621 10.8654 7.00468 11.0181Z" fill="#282829"/>
<path d="M0.268678 15.0135C2.60202 19.721 8.28033 22.001 13.2154 20.1679C15.4852 19.3249 17.3908 17.7019 18.6181 15.6184C19.8956 13.4499 20.2601 10.876 19.8244 8.41681C19.0867 4.25341 15.5796 0.889195 11.4491 0.157411C6.92619 -0.644011 2.31074 1.67243 0.268678 5.79165C-0.280936 6.90018 1.37978 7.87607 1.93132 6.76337C2.99578 4.61615 4.83514 2.99223 7.13286 2.28056C9.37143 1.58728 11.8211 1.89654 13.8478 3.05107C17.886 5.35104 19.2356 10.6431 16.9554 14.6464C15.4595 17.2731 12.6062 18.8668 9.60409 18.8896C6.32117 18.9147 3.37221 16.9489 1.93121 14.0416C1.37978 12.929 -0.280829 13.9049 0.268678 15.0135Z" fill="#0095DA"/>
<path d="M3.22184 8.1731C2.83578 8.1731 2.51273 8.48716 2.51273 8.8821V10.6949C2.51273 10.9999 2.27045 11.2512 1.96537 11.2512C1.66029 11.2512 1.40901 10.9999 1.40901 10.6949V8.8822C1.40901 8.48727 1.09484 8.1732 0.699907 8.1732C0.314065 8.1732 0 8.48727 0 8.8822V10.695C0 11.2153 0.20656 11.709 0.574324 12.086C0.942195 12.4538 1.43586 12.6603 1.96537 12.6603C2.48578 12.6603 2.97945 12.4538 3.34732 12.086C3.72428 11.7091 3.93073 11.2153 3.93073 10.695V8.8822C3.93073 8.48716 3.60758 8.1731 3.22184 8.1731Z" fill="#0095DA"/>
</svg>
